<?xml version="1.0" encoding="UTF-8" standalone="no"?>
<svg
   xmlns:dc="http://purl.org/dc/elements/1.1/"
   xmlns:cc="http://creativecommons.org/ns#"
   xmlns:rdf="http://www.w3.org/1999/02/22-rdf-syntax-ns#"
   xmlns:svg="http://www.w3.org/2000/svg"
   xmlns="http://www.w3.org/2000/svg"
   xmlns:sodipodi="http://sodipodi.sourceforge.net/DTD/sodipodi-0.dtd"
   xmlns:inkscape="http://www.inkscape.org/namespaces/inkscape"
   id="svg227"
   version="1.1"
   viewBox="0 0 183.69643 176.89285"
   height="176.89285mm"
   width="183.69643mm"
   sodipodi:docname="mission_1_beige.svg"
   inkscape:version="0.92.3 (2405546, 2018-03-11)">
  <sodipodi:namedview
     pagecolor="#ffffff"
     bordercolor="#666666"
     borderopacity="1"
     objecttolerance="10"
     gridtolerance="10"
     guidetolerance="10"
     inkscape:pageopacity="0"
     inkscape:pageshadow="2"
     inkscape:window-width="1920"
     inkscape:window-height="1017"
     id="namedview46"
     showgrid="false"
     fit-margin-top="0"
     fit-margin-left="0"
     fit-margin-right="0"
     fit-margin-bottom="0"
     inkscape:zoom="0.2102413"
     inkscape:cx="-381.26304"
     inkscape:cy="332.6884"
     inkscape:window-x="0"
     inkscape:window-y="30"
     inkscape:window-maximized="1"
     inkscape:current-layer="layer1" />
  <defs
     id="defs221" />
  <metadata
     id="metadata224">
    <rdf:RDF>
      <cc:Work
         rdf:about="">
        <dc:format>image/svg+xml</dc:format>
        <dc:type
           rdf:resource="http://purl.org/dc/dcmitype/StillImage" />
        <dc:title></dc:title>
      </cc:Work>
    </rdf:RDF>
  </metadata>
  <g
     id="layer1"
     transform="translate(-2.64583,-59.630956)">
    <g
       id="g949">
      <path
         style="fill:#e9e1cc;fill-opacity:1;stroke-width:0.26458332"
         d="M 186.34226,148.07738 A 91.848213,88.446426 0 0 1 94.49405,236.52381 91.848213,88.446426 0 0 1 2.64583,148.07738 91.848213,88.446426 0 0 1 94.49405,59.630956 91.848213,88.446426 0 0 1 186.34226,148.07738 Z"
         id="path3713-6"
         inkscape:connector-curvature="0" />
      <g
         aria-label="Synergize with the government at all levels"
         transform="matrix(0.32440865,0,0,0.40120315,-45.87366,-40.878724)"
         style="font-style:normal;font-weight:normal;font-size:40px;line-height:1.25;font-family:sans-serif;letter-spacing:0px;word-spacing:0px;fill:#000000;fill-opacity:1;stroke:none"
         id="flowRoot3715-7">
        <path
           d="m 258.18918,456.70687 q -3.12,0 -6,-1 -2.84,-1 -4.4,-2.64 l 1.16,-2.28 q 1.52,1.52 4.04,2.48 2.52,0.92 5.2,0.92 3.76,0 5.64,-1.36 1.88,-1.4 1.88,-3.6 0,-1.68 -1.04,-2.68 -1,-1 -2.48,-1.52 -1.48,-0.56 -4.12,-1.2 -3.16,-0.8 -5.04,-1.52 -1.88,-0.76 -3.24,-2.28 -1.32,-1.52 -1.32,-4.12 0,-2.12 1.12,-3.84 1.12,-1.76 3.44,-2.8 2.32,-1.04 5.76,-1.04 2.4,0 4.68,0.68 2.32,0.64 4,1.8 l -1,2.36 q -1.76,-1.16 -3.76,-1.72 -2,-0.6 -3.92,-0.6 -3.68,0 -5.56,1.44 -1.84,1.4 -1.84,3.64 0,1.68 1,2.72 1.04,1 2.56,1.56 1.56,0.52 4.16,1.16 3.08,0.76 4.96,1.52 1.92,0.72 3.24,2.24 1.32,1.48 1.32,4.04 0,2.12 -1.16,3.88 -1.12,1.72 -3.48,2.76 -2.36,1 -5.8,1 z"
           style="font-style:normal;font-variant:normal;font-weight:normal;font-stretch:normal;font-family:Montserrat;-inkscape-font-specification:Montserrat;text-align:center;text-anchor:middle;fill:#000000;fill-opacity:1"
           id="path38"
           inkscape:connector-curvature="0" />
        <path
           d="m 291.76793,435.42687 -10.52,23.56 q -1.28,2.96 -2.96,4.2 -1.68,1.24 -4.04,1.24 -1.52,0 -2.84,-0.48 -1.32,-0.48 -2.28,-1.44 l 1.32,-2.12 q 1.6,1.6 3.84,1.6 1.44,0 2.44,-0.8 1.04,-0.8 1.92,-2.72 l 0.92,-2.04 -9.4,-21 h 2.96 l 7.92,17.88 7.92,-17.88 z"
           style="font-style:normal;font-variant:normal;font-weight:normal;font-stretch:normal;font-family:Montserrat;-inkscape-font-specification:Montserrat;text-align:center;text-anchor:middle;fill:#000000;fill-opacity:1"
           id="path40"
           inkscape:connector-curvature="0" />
        <path
           d="m 306.52668,435.26687 q 3.96,0 6.28,2.32 2.36,2.28 2.36,6.68 v 12.2 h -2.84 v -11.92 q 0,-3.28 -1.64,-5 -1.64,-1.72 -4.68,-1.72 -3.4,0 -5.4,2.04 -1.96,2 -1.96,5.56 v 11.04 h -2.84 v -21.04 h 2.72 v 3.88 q 1.16,-1.92 3.2,-2.96 2.08,-1.08 4.8,-1.08 z"
           style="font-style:normal;font-variant:normal;font-weight:normal;font-stretch:normal;font-family:Montserrat;-inkscape-font-specification:Montserrat;text-align:center;text-anchor:middle;fill:#000000;fill-opacity:1"
           id="path42"
           inkscape:connector-curvature="0" />
        <path
           d="m 341.31418,446.82687 h -17.6 q 0.24,3.28 2.52,5.32 2.28,2 5.76,2 1.96,0 3.6,-0.68 1.64,-0.72 2.84,-2.08 l 1.6,1.84 q -1.4,1.68 -3.52,2.56 -2.08,0.88 -4.6,0.88 -3.24,0 -5.76,-1.36 -2.48,-1.4 -3.88,-3.84 -1.4,-2.44 -1.4,-5.52 0,-3.08 1.32,-5.52 1.36,-2.44 3.68,-3.8 2.36,-1.36 5.28,-1.36 2.92,0 5.24,1.36 2.32,1.36 3.64,3.8 1.32,2.4 1.32,5.52 z m -10.16,-9.12 q -3.04,0 -5.12,1.96 -2.04,1.92 -2.32,5.04 h 14.92 q -0.28,-3.12 -2.36,-5.04 -2.04,-1.96 -5.12,-1.96 z"
           style="font-style:normal;font-variant:normal;font-weight:normal;font-stretch:normal;font-family:Montserrat;-inkscape-font-specification:Montserrat;text-align:center;text-anchor:middle;fill:#000000;fill-opacity:1"
           id="path44"
           inkscape:connector-curvature="0" />
        <path
           d="m 349.8548,439.54687 q 1,-2.12 2.96,-3.2 2,-1.08 4.92,-1.08 v 2.76 l -0.68,-0.04 q -3.32,0 -5.2,2.04 -1.88,2.04 -1.88,5.72 v 10.72 h -2.84 v -21.04 h 2.72 z"
           style="font-style:normal;font-variant:normal;font-weight:normal;font-stretch:normal;font-family:Montserrat;-inkscape-font-specification:Montserrat;text-align:center;text-anchor:middle;fill:#000000;fill-opacity:1"
           id="path46"
           inkscape:connector-curvature="0" />
        <path
           d="m 382.08355,435.42687 v 18.48 q 0,5.36 -2.64,7.92 -2.6,2.6 -7.88,2.6 -2.92,0 -5.56,-0.88 -2.6,-0.84 -4.24,-2.36 l 1.44,-2.16 q 1.52,1.36 3.68,2.12 2.2,0.76 4.6,0.76 4,0 5.88,-1.88 1.88,-1.84 1.88,-5.76 v -2.68 q -1.32,2 -3.48,3.04 -2.12,1.04 -4.72,1.04 -2.96,0 -5.4,-1.28 -2.4,-1.32 -3.8,-3.64 -1.36,-2.36 -1.36,-5.32 0,-2.96 1.36,-5.28 1.4,-2.32 3.8,-3.6 2.4,-1.28 5.4,-1.28 2.68,0 4.84,1.08 2.16,1.08 3.48,3.12 v -4.04 z m -10.76,17.72 q 2.28,0 4.12,-0.96 1.84,-1 2.84,-2.76 1.04,-1.76 1.04,-4 0,-2.24 -1.04,-3.96 -1,-1.76 -2.84,-2.72 -1.8,-1 -4.12,-1 -2.28,0 -4.12,0.96 -1.8,0.96 -2.84,2.72 -1,1.76 -1,4 0,2.24 1,4 1.04,1.76 2.84,2.76 1.84,0.96 4.12,0.96 z"
           style="font-style:normal;font-variant:normal;font-weight:normal;font-stretch:normal;font-family:Montserrat;-inkscape-font-specification:Montserrat;text-align:center;text-anchor:middle;fill:#000000;fill-opacity:1"
           id="path48"
           inkscape:connector-curvature="0" />
        <path
           d="m 390.02543,435.42687 h 2.84 v 21.04 h -2.84 z m 1.44,-4.6 q -0.88,0 -1.48,-0.6 -0.6,-0.6 -0.6,-1.44 0,-0.8 0.6,-1.4 0.6,-0.6 1.48,-0.6 0.88,0 1.48,0.6 0.6,0.56 0.6,1.36 0,0.88 -0.6,1.48 -0.6,0.6 -1.48,0.6 z"
           style="font-style:normal;font-variant:normal;font-weight:normal;font-stretch:normal;font-family:Montserrat;-inkscape-font-specification:Montserrat;text-align:center;text-anchor:middle;fill:#000000;fill-opacity:1"
           id="path50"
           inkscape:connector-curvature="0" />
        <path
           d="m 415.64668,454.10687 v 2.36 h -17.12 v -1.88 l 13.24,-16.76 h -13 v -2.4 h 16.64 v 1.88 l -13.24,16.8 z"
           style="font-style:normal;font-variant:normal;font-weight:normal;font-stretch:normal;font-family:Montserrat;-inkscape-font-specification:Montserrat;text-align:center;text-anchor:middle;fill:#000000;fill-opacity:1"
           id="path52"
           inkscape:connector-curvature="0" />
        <path
           d="m 439.2048,446.82687 h -17.6 q 0.24,3.28 2.52,5.32 2.28,2 5.76,2 1.96,0 3.6,-0.68 1.64,-0.72 2.84,-2.08 l 1.6,1.84 q -1.4,1.68 -3.52,2.56 -2.08,0.88 -4.6,0.88 -3.24,0 -5.76,-1.36 -2.48,-1.4 -3.88,-3.84 -1.4,-2.44 -1.4,-5.52 0,-3.08 1.32,-5.52 1.36,-2.44 3.68,-3.8 2.36,-1.36 5.28,-1.36 2.92,0 5.24,1.36 2.32,1.36 3.64,3.8 1.32,2.4 1.32,5.52 z m -10.16,-9.12 q -3.04,0 -5.12,1.96 -2.04,1.92 -2.32,5.04 h 14.92 q -0.28,-3.12 -2.36,-5.04 -2.04,-1.96 -5.12,-1.96 z"
           style="font-style:normal;font-variant:normal;font-weight:normal;font-stretch:normal;font-family:Montserrat;-inkscape-font-specification:Montserrat;text-align:center;text-anchor:middle;fill:#000000;fill-opacity:1"
           id="path54"
           inkscape:connector-curvature="0" />
        <path
           d="m 486.37418,435.42687 -7.96,21.04 h -2.68 l -6.64,-17.24 -6.64,17.24 h -2.68 l -7.92,-21.04 h 2.72 l 6.6,17.88 6.76,-17.88 h 2.44 l 6.72,17.88 6.68,-17.88 z"
           style="font-style:normal;font-variant:normal;font-weight:normal;font-stretch:normal;font-family:Montserrat;-inkscape-font-specification:Montserrat;text-align:center;text-anchor:middle;fill:#000000;fill-opacity:1"
           id="path56"
           inkscape:connector-curvature="0" />
        <path
           d="m 490.65043,435.42687 h 2.84 v 21.04 h -2.84 z m 1.44,-4.6 q -0.88,0 -1.48,-0.6 -0.6,-0.6 -0.6,-1.44 0,-0.8 0.6,-1.4 0.6,-0.6 1.48,-0.6 0.88,0 1.48,0.6 0.6,0.56 0.6,1.36 0,0.88 -0.6,1.48 -0.6,0.6 -1.48,0.6 z"
           style="font-style:normal;font-variant:normal;font-weight:normal;font-stretch:normal;font-family:Montserrat;-inkscape-font-specification:Montserrat;text-align:center;text-anchor:middle;fill:#000000;fill-opacity:1"
           id="path58"
           inkscape:connector-curvature="0" />
        <path
           d="m 512.51168,455.18687 q -0.8,0.72 -2,1.12 -1.16,0.36 -2.44,0.36 -2.96,0 -4.56,-1.6 -1.6,-1.6 -1.6,-4.52 v -12.72 h -3.76 v -2.4 h 3.76 v -4.6 h 2.84 v 4.6 h 6.4 v 2.4 h -6.4 v 12.56 q 0,1.88 0.92,2.88 0.96,0.96 2.72,0.96 0.88,0 1.68,-0.28 0.84,-0.28 1.44,-0.8 z"
           style="font-style:normal;font-variant:normal;font-weight:normal;font-stretch:normal;font-family:Montserrat;-inkscape-font-specification:Montserrat;text-align:center;text-anchor:middle;fill:#000000;fill-opacity:1"
           id="path60"
           inkscape:connector-curvature="0" />
        <path
           d="m 528.40168,435.26687 q 3.96,0 6.28,2.32 2.36,2.28 2.36,6.68 v 12.2 h -2.84 v -11.92 q 0,-3.28 -1.64,-5 -1.64,-1.72 -4.68,-1.72 -3.4,0 -5.4,2.04 -1.96,2 -1.96,5.56 v 11.04 h -2.84 v -29.68 h 2.84 v 12.32 q 1.16,-1.84 3.2,-2.84 2.04,-1 4.68,-1 z"
           style="font-style:normal;font-variant:normal;font-weight:normal;font-stretch:normal;font-family:Montserrat;-inkscape-font-specification:Montserrat;text-align:center;text-anchor:middle;fill:#000000;fill-opacity:1"
           id="path62"
           inkscape:connector-curvature="0" />
        <path
           d="m 566.3398,455.18687 q -0.8,0.72 -2,1.12 -1.16,0.36 -2.44,0.36 -2.96,0 -4.56,-1.6 -1.6,-1.6 -1.6,-4.52 v -12.72 h -3.76 v -2.4 h 3.76 v -4.6 h 2.84 v 4.6 h 6.4 v 2.4 h -6.4 v 12.56 q 0,1.88 0.92,2.88 0.96,0.96 2.72,0.96 0.88,0 1.68,-0.28 0.84,-0.28 1.44,-0.8 z"
           style="font-style:normal;font-variant:normal;font-weight:normal;font-stretch:normal;font-family:Montserrat;-inkscape-font-specification:Montserrat;text-align:center;text-anchor:middle;fill:#000000;fill-opacity:1"
           id="path64"
           inkscape:connector-curvature="0" />
        <path
           d="m 582.2298,435.26687 q 3.96,0 6.28,2.32 2.36,2.28 2.36,6.68 v 12.2 h -2.84 v -11.92 q 0,-3.28 -1.64,-5 -1.64,-1.72 -4.68,-1.72 -3.4,0 -5.4,2.04 -1.96,2 -1.96,5.56 v 11.04 h -2.84 v -29.68 h 2.84 v 12.32 q 1.16,-1.84 3.2,-2.84 2.04,-1 4.68,-1 z"
           style="font-style:normal;font-variant:normal;font-weight:normal;font-stretch:normal;font-family:Montserrat;-inkscape-font-specification:Montserrat;text-align:center;text-anchor:middle;fill:#000000;fill-opacity:1"
           id="path66"
           inkscape:connector-curvature="0" />
        <path
           d="m 617.0173,446.82687 h -17.6 q 0.24,3.28 2.52,5.32 2.28,2 5.76,2 1.96,0 3.6,-0.68 1.64,-0.72 2.84,-2.08 l 1.6,1.84 q -1.4,1.68 -3.52,2.56 -2.08,0.88 -4.6,0.88 -3.24,0 -5.76,-1.36 -2.48,-1.4 -3.88,-3.84 -1.4,-2.44 -1.4,-5.52 0,-3.08 1.32,-5.52 1.36,-2.44 3.68,-3.8 2.36,-1.36 5.28,-1.36 2.92,0 5.24,1.36 2.32,1.36 3.64,3.8 1.32,2.4 1.32,5.52 z m -10.16,-9.12 q -3.04,0 -5.12,1.96 -2.04,1.92 -2.32,5.04 h 14.92 q -0.28,-3.12 -2.36,-5.04 -2.04,-1.96 -5.12,-1.96 z"
           style="font-style:normal;font-variant:normal;font-weight:normal;font-stretch:normal;font-family:Montserrat;-inkscape-font-specification:Montserrat;text-align:center;text-anchor:middle;fill:#000000;fill-opacity:1"
           id="path68"
           inkscape:connector-curvature="0" />
        <path
           d="m 217.63043,486.16042 v 18.48 q 0,5.36 -2.64,7.92 -2.6,2.6 -7.88,2.6 -2.92,0 -5.56,-0.88 -2.6,-0.84 -4.24,-2.36 l 1.44,-2.16 q 1.52,1.36 3.68,2.12 2.2,0.76 4.6,0.76 4,0 5.88,-1.88 1.88,-1.84 1.88,-5.76 v -2.68 q -1.32,2 -3.48,3.04 -2.12,1.04 -4.72,1.04 -2.96,0 -5.4,-1.28 -2.4,-1.32 -3.8,-3.64 -1.36,-2.36 -1.36,-5.32 0,-2.96 1.36,-5.28 1.4,-2.32 3.8,-3.6 2.4,-1.28 5.4,-1.28 2.68,0 4.84,1.08 2.16,1.08 3.48,3.12 v -4.04 z m -10.76,17.72 q 2.28,0 4.12,-0.96 1.84,-1 2.84,-2.76 1.04,-1.76 1.04,-4 0,-2.24 -1.04,-3.96 -1,-1.76 -2.84,-2.72 -1.8,-1 -4.12,-1 -2.28,0 -4.12,0.96 -1.8,0.96 -2.84,2.72 -1,1.76 -1,4 0,2.24 1,4 1.04,1.76 2.84,2.76 1.84,0.96 4.12,0.96 z"
           style="font-style:normal;font-variant:normal;font-weight:normal;font-stretch:normal;font-family:Montserrat;-inkscape-font-specification:Montserrat;text-align:center;text-anchor:middle;fill:#000000;fill-opacity:1"
           id="path70"
           inkscape:connector-curvature="0" />
        <path
           d="m 234.1723,507.40042 q -3.04,0 -5.48,-1.36 -2.44,-1.4 -3.84,-3.84 -1.4,-2.44 -1.4,-5.52 0,-3.08 1.4,-5.52 1.4,-2.44 3.84,-3.8 2.44,-1.36 5.48,-1.36 3.04,0 5.48,1.36 2.44,1.36 3.8,3.8 1.4,2.44 1.4,5.52 0,3.08 -1.4,5.52 -1.36,2.44 -3.8,3.84 -2.44,1.36 -5.48,1.36 z m 0,-2.52 q 2.24,0 4,-1 1.8,-1.04 2.8,-2.92 1,-1.88 1,-4.28 0,-2.4 -1,-4.28 -1,-1.88 -2.8,-2.88 -1.76,-1.04 -4,-1.04 -2.24,0 -4.04,1.04 -1.76,1 -2.8,2.88 -1,1.88 -1,4.28 0,2.4 1,4.28 1.04,1.88 2.8,2.92 1.8,1 4.04,1 z"
           style="font-style:normal;font-variant:normal;font-weight:normal;font-stretch:normal;font-family:Montserrat;-inkscape-font-specification:Montserrat;text-align:center;text-anchor:middle;fill:#000000;fill-opacity:1"
           id="path72"
           inkscape:connector-curvature="0" />
        <path
           d="m 267.70543,486.16042 -9.36,21.04 h -2.92 l -9.32,-21.04 h 2.96 l 7.88,17.92 7.96,-17.92 z"
           style="font-style:normal;font-variant:normal;font-weight:normal;font-stretch:normal;font-family:Montserrat;-inkscape-font-specification:Montserrat;text-align:center;text-anchor:middle;fill:#000000;fill-opacity:1"
           id="path74"
           inkscape:connector-curvature="0" />
        <path
           d="m 289.43918,497.56042 h -17.6 q 0.24,3.28 2.52,5.32 2.28,2 5.76,2 1.96,0 3.6,-0.68 1.64,-0.72 2.84,-2.08 l 1.6,1.84 q -1.4,1.68 -3.52,2.56 -2.08,0.88 -4.6,0.88 -3.24,0 -5.76,-1.36 -2.48,-1.4 -3.88,-3.84 -1.4,-2.44 -1.4,-5.52 0,-3.08 1.32,-5.52 1.36,-2.44 3.68,-3.8 2.36,-1.36 5.28,-1.36 2.92,0 5.24,1.36 2.32,1.36 3.64,3.8 1.32,2.4 1.32,5.52 z m -10.16,-9.12 q -3.04,0 -5.12,1.96 -2.04,1.92 -2.32,5.04 h 14.92 q -0.28,-3.12 -2.36,-5.04 -2.04,-1.96 -5.12,-1.96 z"
           style="font-style:normal;font-variant:normal;font-weight:normal;font-stretch:normal;font-family:Montserrat;-inkscape-font-specification:Montserrat;text-align:center;text-anchor:middle;fill:#000000;fill-opacity:1"
           id="path76"
           inkscape:connector-curvature="0" />
        <path
           d="m 297.9798,490.28042 q 1,-2.12 2.96,-3.2 2,-1.08 4.92,-1.08 v 2.76 l -0.68,-0.04 q -3.32,0 -5.2,2.04 -1.88,2.04 -1.88,5.72 v 10.72 h -2.84 v -21.04 h 2.72 z"
           style="font-style:normal;font-variant:normal;font-weight:normal;font-stretch:normal;font-family:Montserrat;-inkscape-font-specification:Montserrat;text-align:center;text-anchor:middle;fill:#000000;fill-opacity:1"
           id="path78"
           inkscape:connector-curvature="0" />
        <path
           d="m 321.68293,486.00042 q 3.96,0 6.28,2.32 2.36,2.28 2.36,6.68 v 12.2 h -2.84 v -11.92 q 0,-3.28 -1.64,-5 -1.64,-1.72 -4.68,-1.72 -3.4,0 -5.4,2.04 -1.96,2 -1.96,5.56 v 11.04 h -2.84 v -21.04 h 2.72 v 3.88 q 1.16,-1.92 3.2,-2.96 2.08,-1.08 4.8,-1.08 z"
           style="font-style:normal;font-variant:normal;font-weight:normal;font-stretch:normal;font-family:Montserrat;-inkscape-font-specification:Montserrat;text-align:center;text-anchor:middle;fill:#000000;fill-opacity:1"
           id="path80"
           inkscape:connector-curvature="0" />
        <path
           d="m 364.3123,486.00042 q 3.96,0 6.2,2.28 2.28,2.28 2.28,6.72 v 12.2 h -2.84 v -11.92 q 0,-3.28 -1.6,-5 -1.56,-1.72 -4.44,-1.72 -3.28,0 -5.16,2.04 -1.88,2 -1.88,5.56 v 11.04 h -2.84 v -11.92 q 0,-3.28 -1.6,-5 -1.56,-1.72 -4.48,-1.72 -3.24,0 -5.16,2.04 -1.88,2 -1.88,5.56 v 11.04 h -2.84 v -21.04 h 2.72 v 3.84 q 1.12,-1.92 3.12,-2.96 2,-1.04 4.6,-1.04 2.64,0 4.56,1.12 1.96,1.12 2.92,3.32 1.16,-2.08 3.32,-3.24 2.2,-1.2 5,-1.2 z"
           style="font-style:normal;font-variant:normal;font-weight:normal;font-stretch:normal;font-family:Montserrat;-inkscape-font-specification:Montserrat;text-align:center;text-anchor:middle;fill:#000000;fill-opacity:1"
           id="path82"
           inkscape:connector-curvature="0" />
        <path
           d="m 398.8923,497.56042 h -17.6 q 0.24,3.28 2.52,5.32 2.28,2 5.76,2 1.96,0 3.6,-0.68 1.64,-0.72 2.84,-2.08 l 1.6,1.84 q -1.4,1.68 -3.52,2.56 -2.08,0.88 -4.6,0.88 -3.24,0 -5.76,-1.36 -2.48,-1.4 -3.88,-3.84 -1.4,-2.44 -1.4,-5.52 0,-3.08 1.32,-5.52 1.36,-2.44 3.68,-3.8 2.36,-1.36 5.28,-1.36 2.92,0 5.24,1.36 2.32,1.36 3.64,3.8 1.32,2.4 1.32,5.52 z m -10.16,-9.12 q -3.04,0 -5.12,1.96 -2.04,1.92 -2.32,5.04 h 14.92 q -0.28,-3.12 -2.36,-5.04 -2.04,-1.96 -5.12,-1.96 z"
           style="font-style:normal;font-variant:normal;font-weight:normal;font-stretch:normal;font-family:Montserrat;-inkscape-font-specification:Montserrat;text-align:center;text-anchor:middle;fill:#000000;fill-opacity:1"
           id="path84"
           inkscape:connector-curvature="0" />
        <path
           d="m 415.43293,486.00042 q 3.96,0 6.28,2.32 2.36,2.28 2.36,6.68 v 12.2 h -2.84 v -11.92 q 0,-3.28 -1.64,-5 -1.64,-1.72 -4.68,-1.72 -3.4,0 -5.4,2.04 -1.96,2 -1.96,5.56 v 11.04 h -2.84 v -21.04 h 2.72 v 3.88 q 1.16,-1.92 3.2,-2.96 2.08,-1.08 4.8,-1.08 z"
           style="font-style:normal;font-variant:normal;font-weight:normal;font-stretch:normal;font-family:Montserrat;-inkscape-font-specification:Montserrat;text-align:center;text-anchor:middle;fill:#000000;fill-opacity:1"
           id="path86"
           inkscape:connector-curvature="0" />
        <path
           d="m 442.9023,505.92042 q -0.8,0.72 -2,1.12 -1.16,0.36 -2.44,0.36 -2.96,0 -4.56,-1.6 -1.6,-1.6 -1.6,-4.52 v -12.72 h -3.76 v -2.4 h 3.76 v -4.6 h 2.84 v 4.6 h 6.4 v 2.4 h -6.4 v 12.56 q 0,1.88 0.92,2.88 0.96,0.96 2.72,0.96 0.88,0 1.68,-0.28 0.84,-0.28 1.44,-0.8 z"
           style="font-style:normal;font-variant:normal;font-weight:normal;font-stretch:normal;font-family:Montserrat;-inkscape-font-specification:Montserrat;text-align:center;text-anchor:middle;fill:#000000;fill-opacity:1"
           id="path88"
           inkscape:connector-curvature="0" />
        <path
           d="m 465.90105,486.00042 q 4.12,0 6.32,2.08 2.2,2.04 2.2,6.08 v 13.04 h -2.72 v -3.28 q -0.96,1.64 -2.84,2.56 -1.84,0.92 -4.4,0.92 -3.52,0 -5.6,-1.68 -2.08,-1.68 -2.08,-4.44 0,-2.68 1.92,-4.32 1.96,-1.64 6.2,-1.64 h 6.68 v -1.28 q 0,-2.72 -1.52,-4.12 -1.52,-1.44 -4.44,-1.44 -2,0 -3.84,0.68 -1.84,0.64 -3.16,1.8 l -1.28,-2.12 q 1.6,-1.36 3.84,-2.08 2.24,-0.76 4.72,-0.76 z m -1,19.16 q 2.4,0 4.12,-1.08 1.72,-1.12 2.56,-3.2 v -3.44 h -6.6 q -5.4,0 -5.4,3.76 0,1.84 1.4,2.92 1.4,1.04 3.92,1.04 z"
           style="font-style:normal;font-variant:normal;font-weight:normal;font-stretch:normal;font-family:Montserrat;-inkscape-font-specification:Montserrat;text-align:center;text-anchor:middle;fill:#000000;fill-opacity:1"
           id="path90"
           inkscape:connector-curvature="0" />
        <path
           d="m 493.2148,505.92042 q -0.8,0.72 -2,1.12 -1.16,0.36 -2.44,0.36 -2.96,0 -4.56,-1.6 -1.6,-1.6 -1.6,-4.52 v -12.72 h -3.76 v -2.4 h 3.76 v -4.6 h 2.84 v 4.6 h 6.4 v 2.4 h -6.4 v 12.56 q 0,1.88 0.92,2.88 0.96,0.96 2.72,0.96 0.88,0 1.68,-0.28 0.84,-0.28 1.44,-0.8 z"
           style="font-style:normal;font-variant:normal;font-weight:normal;font-stretch:normal;font-family:Montserrat;-inkscape-font-specification:Montserrat;text-align:center;text-anchor:middle;fill:#000000;fill-opacity:1"
           id="path92"
           inkscape:connector-curvature="0" />
        <path
           d="m 516.21355,486.00042 q 4.12,0 6.32,2.08 2.2,2.04 2.2,6.08 v 13.04 h -2.72 v -3.28 q -0.96,1.64 -2.84,2.56 -1.84,0.92 -4.4,0.92 -3.52,0 -5.6,-1.68 -2.08,-1.68 -2.08,-4.44 0,-2.68 1.92,-4.32 1.96,-1.64 6.2,-1.64 h 6.68 v -1.28 q 0,-2.72 -1.52,-4.12 -1.52,-1.44 -4.44,-1.44 -2,0 -3.84,0.68 -1.84,0.64 -3.16,1.8 l -1.28,-2.12 q 1.6,-1.36 3.84,-2.08 2.24,-0.76 4.72,-0.76 z m -1,19.16 q 2.4,0 4.12,-1.08 1.72,-1.12 2.56,-3.2 v -3.44 h -6.6 q -5.4,0 -5.4,3.76 0,1.84 1.4,2.92 1.4,1.04 3.92,1.04 z"
           style="font-style:normal;font-variant:normal;font-weight:normal;font-stretch:normal;font-family:Montserrat;-inkscape-font-specification:Montserrat;text-align:center;text-anchor:middle;fill:#000000;fill-opacity:1"
           id="path94"
           inkscape:connector-curvature="0" />
        <path
           d="m 532.4473,477.52042 h 2.84 v 29.68 h -2.84 z"
           style="font-style:normal;font-variant:normal;font-weight:normal;font-stretch:normal;font-family:Montserrat;-inkscape-font-specification:Montserrat;text-align:center;text-anchor:middle;fill:#000000;fill-opacity:1"
           id="path96"
           inkscape:connector-curvature="0" />
        <path
           d="m 543.22855,477.52042 h 2.84 v 29.68 h -2.84 z"
           style="font-style:normal;font-variant:normal;font-weight:normal;font-stretch:normal;font-family:Montserrat;-inkscape-font-specification:Montserrat;text-align:center;text-anchor:middle;fill:#000000;fill-opacity:1"
           id="path98"
           inkscape:connector-curvature="0" />
        <path
           d="m 564.47855,477.52042 h 2.84 v 29.68 h -2.84 z"
           style="font-style:normal;font-variant:normal;font-weight:normal;font-stretch:normal;font-family:Montserrat;-inkscape-font-specification:Montserrat;text-align:center;text-anchor:middle;fill:#000000;fill-opacity:1"
           id="path100"
           inkscape:connector-curvature="0" />
        <path
           d="m 593.5798,497.56042 h -17.6 q 0.24,3.28 2.52,5.32 2.28,2 5.76,2 1.96,0 3.6,-0.68 1.64,-0.72 2.84,-2.08 l 1.6,1.84 q -1.4,1.68 -3.52,2.56 -2.08,0.88 -4.6,0.88 -3.24,0 -5.76,-1.36 -2.48,-1.4 -3.88,-3.84 -1.4,-2.44 -1.4,-5.52 0,-3.08 1.32,-5.52 1.36,-2.44 3.68,-3.8 2.36,-1.36 5.28,-1.36 2.92,0 5.24,1.36 2.32,1.36 3.64,3.8 1.32,2.4 1.32,5.52 z m -10.16,-9.12 q -3.04,0 -5.12,1.96 -2.04,1.92 -2.32,5.04 h 14.92 q -0.28,-3.12 -2.36,-5.04 -2.04,-1.96 -5.12,-1.96 z"
           style="font-style:normal;font-variant:normal;font-weight:normal;font-stretch:normal;font-family:Montserrat;-inkscape-font-specification:Montserrat;text-align:center;text-anchor:middle;fill:#000000;fill-opacity:1"
           id="path102"
           inkscape:connector-curvature="0" />
        <path
           d="m 616.6898,486.16042 -9.36,21.04 h -2.92 l -9.32,-21.04 h 2.96 l 7.88,17.92 7.96,-17.92 z"
           style="font-style:normal;font-variant:normal;font-weight:normal;font-stretch:normal;font-family:Montserrat;-inkscape-font-specification:Montserrat;text-align:center;text-anchor:middle;fill:#000000;fill-opacity:1"
           id="path104"
           inkscape:connector-curvature="0" />
        <path
           d="m 638.42355,497.56042 h -17.6 q 0.24,3.28 2.52,5.32 2.28,2 5.76,2 1.96,0 3.6,-0.68 1.64,-0.72 2.84,-2.08 l 1.6,1.84 q -1.4,1.68 -3.52,2.56 -2.08,0.88 -4.6,0.88 -3.24,0 -5.76,-1.36 -2.48,-1.4 -3.88,-3.84 -1.4,-2.44 -1.4,-5.52 0,-3.08 1.32,-5.52 1.36,-2.44 3.68,-3.8 2.36,-1.36 5.28,-1.36 2.92,0 5.24,1.36 2.32,1.36 3.64,3.8 1.32,2.4 1.32,5.52 z m -10.16,-9.12 q -3.04,0 -5.12,1.96 -2.04,1.92 -2.32,5.04 h 14.92 q -0.28,-3.12 -2.36,-5.04 -2.04,-1.96 -5.12,-1.96 z"
           style="font-style:normal;font-variant:normal;font-weight:normal;font-stretch:normal;font-family:Montserrat;-inkscape-font-specification:Montserrat;text-align:center;text-anchor:middle;fill:#000000;fill-opacity:1"
           id="path106"
           inkscape:connector-curvature="0" />
        <path
           d="m 644.24418,477.52042 h 2.84 v 29.68 h -2.84 z"
           style="font-style:normal;font-variant:normal;font-weight:normal;font-stretch:normal;font-family:Montserrat;-inkscape-font-specification:Montserrat;text-align:center;text-anchor:middle;fill:#000000;fill-opacity:1"
           id="path108"
           inkscape:connector-curvature="0" />
        <path
           d="m 660.66543,507.40042 q -2.56,0 -4.92,-0.72 -2.32,-0.76 -3.64,-1.88 l 1.28,-2.24 q 1.32,1.04 3.32,1.72 2,0.64 4.16,0.64 2.88,0 4.24,-0.88 1.4,-0.92 1.4,-2.56 0,-1.16 -0.76,-1.8 -0.76,-0.68 -1.92,-1 -1.16,-0.36 -3.08,-0.68 -2.56,-0.48 -4.12,-0.96 -1.56,-0.52 -2.68,-1.72 -1.08,-1.2 -1.08,-3.32 0,-2.64 2.2,-4.32 2.2,-1.68 6.12,-1.68 2.04,0 4.08,0.56 2.04,0.52 3.36,1.4 l -1.24,2.28 q -2.6,-1.8 -6.2,-1.8 -2.72,0 -4.12,0.96 -1.36,0.96 -1.36,2.52 0,1.2 0.76,1.92 0.8,0.72 1.96,1.08 1.16,0.32 3.2,0.68 2.52,0.48 4.04,0.96 1.52,0.48 2.6,1.64 1.08,1.16 1.08,3.2 0,2.76 -2.32,4.4 -2.28,1.6 -6.36,1.6 z"
           style="font-style:normal;font-variant:normal;font-weight:normal;font-stretch:normal;font-family:Montserrat;-inkscape-font-specification:Montserrat;text-align:center;text-anchor:middle;fill:#000000;fill-opacity:1"
           id="path110"
           inkscape:connector-curvature="0" />
      </g>
    </g>
  </g>
</svg>
