<?xml version="1.0" encoding="UTF-8" standalone="no"?>
<svg
   xmlns:dc="http://purl.org/dc/elements/1.1/"
   xmlns:cc="http://creativecommons.org/ns#"
   xmlns:rdf="http://www.w3.org/1999/02/22-rdf-syntax-ns#"
   xmlns:svg="http://www.w3.org/2000/svg"
   xmlns="http://www.w3.org/2000/svg"
   xmlns:sodipodi="http://sodipodi.sourceforge.net/DTD/sodipodi-0.dtd"
   xmlns:inkscape="http://www.inkscape.org/namespaces/inkscape"
   id="svg242"
   version="1.1"
   viewBox="0 0 183.69643 176.89285"
   height="176.89285mm"
   width="183.69643mm"
   sodipodi:docname="mission_3_beige.svg"
   inkscape:version="0.92.3 (2405546, 2018-03-11)">
  <sodipodi:namedview
     pagecolor="#ffffff"
     bordercolor="#666666"
     borderopacity="1"
     objecttolerance="10"
     gridtolerance="10"
     guidetolerance="10"
     inkscape:pageopacity="0"
     inkscape:pageshadow="2"
     inkscape:window-width="1920"
     inkscape:window-height="1017"
     id="namedview61"
     showgrid="false"
     fit-margin-top="0"
     fit-margin-left="0"
     fit-margin-right="0"
     fit-margin-bottom="0"
     inkscape:zoom="1"
     inkscape:cx="288.39241"
     inkscape:cy="329.83126"
     inkscape:window-x="0"
     inkscape:window-y="30"
     inkscape:window-maximized="1"
     inkscape:current-layer="g284" />
  <defs
     id="defs236" />
  <metadata
     id="metadata239">
    <rdf:RDF>
      <cc:Work
         rdf:about="">
        <dc:format>image/svg+xml</dc:format>
        <dc:type
           rdf:resource="http://purl.org/dc/dcmitype/StillImage" />
        <dc:title></dc:title>
      </cc:Work>
    </rdf:RDF>
  </metadata>
  <g
     id="g852"
     transform="translate(43.753658,-107.09517)">
    <g
       id="g284">
      <g
         id="g994">
        <path
           id="path3713-6-9-6"
           d="M 139.94277,195.5416 A 91.848213,88.446426 0 0 1 48.094555,283.98802 91.848213,88.446426 0 0 1 -43.753658,195.5416 91.848213,88.446426 0 0 1 48.094555,107.09517 91.848213,88.446426 0 0 1 139.94277,195.5416 Z"
           style="fill:#e9e1cc;fill-opacity:1;stroke-width:0.26458332"
           inkscape:connector-curvature="0" />
        <g
           id="flowRoot3715-7-3-1"
           style="font-style:normal;font-weight:normal;font-size:40px;line-height:1.25;font-family:sans-serif;letter-spacing:0px;word-spacing:0px;fill:#000000;fill-opacity:1;stroke:none"
           transform="matrix(0.32440865,0,0,0.40120315,-92.346347,-3.5516229)"
           aria-label="Design and implement student centric learning experiences">
          <path
             id="path287"
             style="font-style:normal;font-variant:normal;font-weight:normal;font-stretch:normal;font-family:Montserrat;-inkscape-font-specification:Montserrat;text-align:center;text-anchor:middle;fill:#000000;fill-opacity:1"
             d="m 203.90668,428.46687 h 11.4 q 4.44,0 7.84,1.8 3.4,1.76 5.28,4.96 1.88,3.16 1.88,7.24 0,4.08 -1.88,7.28 -1.88,3.16 -5.28,4.96 -3.4,1.76 -7.84,1.76 h -11.4 z m 11.24,25.44 q 3.68,0 6.44,-1.44 2.76,-1.48 4.28,-4.04 1.52,-2.6 1.52,-5.96 0,-3.36 -1.52,-5.92 -1.52,-2.6 -4.28,-4.04 -2.76,-1.48 -6.44,-1.48 h -8.28 v 22.88 z"
             inkscape:connector-curvature="0" />
          <path
             id="path289"
             style="font-style:normal;font-variant:normal;font-weight:normal;font-stretch:normal;font-family:Montserrat;-inkscape-font-specification:Montserrat;text-align:center;text-anchor:middle;fill:#000000;fill-opacity:1"
             d="m 254.67355,446.82687 h -17.6 q 0.24,3.28 2.52,5.32 2.28,2 5.76,2 1.96,0 3.6,-0.68 1.64,-0.72 2.84,-2.08 l 1.6,1.84 q -1.4,1.68 -3.52,2.56 -2.08,0.88 -4.6,0.88 -3.24,0 -5.76,-1.36 -2.48,-1.4 -3.88,-3.84 -1.4,-2.44 -1.4,-5.52 0,-3.08 1.32,-5.52 1.36,-2.44 3.68,-3.8 2.36,-1.36 5.28,-1.36 2.92,0 5.24,1.36 2.32,1.36 3.64,3.8 1.32,2.4 1.32,5.52 z m -10.16,-9.12 q -3.04,0 -5.12,1.96 -2.04,1.92 -2.32,5.04 h 14.92 q -0.28,-3.12 -2.36,-5.04 -2.04,-1.96 -5.12,-1.96 z"
             inkscape:connector-curvature="0" />
          <path
             id="path291"
             style="font-style:normal;font-variant:normal;font-weight:normal;font-stretch:normal;font-family:Montserrat;-inkscape-font-specification:Montserrat;text-align:center;text-anchor:middle;fill:#000000;fill-opacity:1"
             d="m 266.13418,456.66687 q -2.56,0 -4.92,-0.72 -2.32,-0.76 -3.64,-1.88 l 1.28,-2.24 q 1.32,1.04 3.32,1.72 2,0.64 4.16,0.64 2.88,0 4.24,-0.88 1.4,-0.92 1.4,-2.56 0,-1.16 -0.76,-1.8 -0.76,-0.68 -1.92,-1 -1.16,-0.36 -3.08,-0.68 -2.56,-0.48 -4.12,-0.96 -1.56,-0.52 -2.68,-1.72 -1.08,-1.2 -1.08,-3.32 0,-2.64 2.2,-4.32 2.2,-1.68 6.12,-1.68 2.04,0 4.08,0.56 2.04,0.52 3.36,1.4 l -1.24,2.28 q -2.6,-1.8 -6.2,-1.8 -2.72,0 -4.12,0.96 -1.36,0.96 -1.36,2.52 0,1.2 0.76,1.92 0.8,0.72 1.96,1.08 1.16,0.32 3.2,0.68 2.52,0.48 4.04,0.96 1.52,0.48 2.6,1.64 1.08,1.16 1.08,3.2 0,2.76 -2.32,4.4 -2.28,1.6 -6.36,1.6 z"
             inkscape:connector-curvature="0" />
          <path
             id="path293"
             style="font-style:normal;font-variant:normal;font-weight:normal;font-stretch:normal;font-family:Montserrat;-inkscape-font-specification:Montserrat;text-align:center;text-anchor:middle;fill:#000000;fill-opacity:1"
             d="m 280.02543,435.42687 h 2.84 v 21.04 h -2.84 z m 1.44,-4.6 q -0.88,0 -1.48,-0.6 -0.6,-0.6 -0.6,-1.44 0,-0.8 0.6,-1.4 0.6,-0.6 1.48,-0.6 0.88,0 1.48,0.6 0.6,0.56 0.6,1.36 0,0.88 -0.6,1.48 -0.6,0.6 -1.48,0.6 z"
             inkscape:connector-curvature="0" />
          <path
             id="path295"
             style="font-style:normal;font-variant:normal;font-weight:normal;font-stretch:normal;font-family:Montserrat;-inkscape-font-specification:Montserrat;text-align:center;text-anchor:middle;fill:#000000;fill-opacity:1"
             d="m 310.28668,435.42687 v 18.48 q 0,5.36 -2.64,7.92 -2.6,2.6 -7.88,2.6 -2.92,0 -5.56,-0.88 -2.6,-0.84 -4.24,-2.36 l 1.44,-2.16 q 1.52,1.36 3.68,2.12 2.2,0.76 4.6,0.76 4,0 5.88,-1.88 1.88,-1.84 1.88,-5.76 v -2.68 q -1.32,2 -3.48,3.04 -2.12,1.04 -4.72,1.04 -2.96,0 -5.4,-1.28 -2.4,-1.32 -3.8,-3.64 -1.36,-2.36 -1.36,-5.32 0,-2.96 1.36,-5.28 1.4,-2.32 3.8,-3.6 2.4,-1.28 5.4,-1.28 2.68,0 4.84,1.08 2.16,1.08 3.48,3.12 v -4.04 z m -10.76,17.72 q 2.28,0 4.12,-0.96 1.84,-1 2.84,-2.76 1.04,-1.76 1.04,-4 0,-2.24 -1.04,-3.96 -1,-1.76 -2.84,-2.72 -1.8,-1 -4.12,-1 -2.28,0 -4.12,0.96 -1.8,0.96 -2.84,2.72 -1,1.76 -1,4 0,2.24 1,4 1.04,1.76 2.84,2.76 1.84,0.96 4.12,0.96 z"
             inkscape:connector-curvature="0" />
          <path
             id="path297"
             style="font-style:normal;font-variant:normal;font-weight:normal;font-stretch:normal;font-family:Montserrat;-inkscape-font-specification:Montserrat;text-align:center;text-anchor:middle;fill:#000000;fill-opacity:1"
             d="m 328.94855,435.26687 q 3.96,0 6.28,2.32 2.36,2.28 2.36,6.68 v 12.2 h -2.84 v -11.92 q 0,-3.28 -1.64,-5 -1.64,-1.72 -4.68,-1.72 -3.4,0 -5.4,2.04 -1.96,2 -1.96,5.56 v 11.04 h -2.84 v -21.04 h 2.72 v 3.88 q 1.16,-1.92 3.2,-2.96 2.08,-1.08 4.8,-1.08 z"
             inkscape:connector-curvature="0" />
          <path
             id="path299"
             style="font-style:normal;font-variant:normal;font-weight:normal;font-stretch:normal;font-family:Montserrat;-inkscape-font-specification:Montserrat;text-align:center;text-anchor:middle;fill:#000000;fill-opacity:1"
             d="m 363.16668,435.26687 q 4.12,0 6.32,2.08 2.2,2.04 2.2,6.08 v 13.04 h -2.72 v -3.28 q -0.96,1.64 -2.84,2.56 -1.84,0.92 -4.4,0.92 -3.52,0 -5.6,-1.68 -2.08,-1.68 -2.08,-4.44 0,-2.68 1.92,-4.32 1.96,-1.64 6.2,-1.64 h 6.68 v -1.28 q 0,-2.72 -1.52,-4.12 -1.52,-1.44 -4.44,-1.44 -2,0 -3.84,0.68 -1.84,0.64 -3.16,1.8 l -1.28,-2.12 q 1.6,-1.36 3.84,-2.08 2.24,-0.76 4.72,-0.76 z m -1,19.16 q 2.4,0 4.12,-1.08 1.72,-1.12 2.56,-3.2 v -3.44 h -6.6 q -5.4,0 -5.4,3.76 0,1.84 1.4,2.92 1.4,1.04 3.92,1.04 z"
             inkscape:connector-curvature="0" />
          <path
             id="path301"
             style="font-style:normal;font-variant:normal;font-weight:normal;font-stretch:normal;font-family:Montserrat;-inkscape-font-specification:Montserrat;text-align:center;text-anchor:middle;fill:#000000;fill-opacity:1"
             d="m 390.12043,435.26687 q 3.96,0 6.28,2.32 2.36,2.28 2.36,6.68 v 12.2 h -2.84 v -11.92 q 0,-3.28 -1.64,-5 -1.64,-1.72 -4.68,-1.72 -3.4,0 -5.4,2.04 -1.96,2 -1.96,5.56 v 11.04 h -2.84 v -21.04 h 2.72 v 3.88 q 1.16,-1.92 3.2,-2.96 2.08,-1.08 4.8,-1.08 z"
             inkscape:connector-curvature="0" />
          <path
             id="path303"
             style="font-style:normal;font-variant:normal;font-weight:normal;font-stretch:normal;font-family:Montserrat;-inkscape-font-specification:Montserrat;text-align:center;text-anchor:middle;fill:#000000;fill-opacity:1"
             d="m 425.78793,426.78687 v 29.68 h -2.72 v -4.16 q -1.28,2.12 -3.4,3.24 -2.08,1.12 -4.72,1.12 -2.96,0 -5.36,-1.36 -2.4,-1.36 -3.76,-3.8 -1.36,-2.44 -1.36,-5.56 0,-3.12 1.36,-5.56 1.36,-2.44 3.76,-3.76 2.4,-1.36 5.36,-1.36 2.56,0 4.6,1.08 2.08,1.04 3.4,3.08 v -12.64 z m -10.6,27.36 q 2.2,0 3.96,-1 1.8,-1.04 2.8,-2.92 1.04,-1.88 1.04,-4.28 0,-2.4 -1.04,-4.28 -1,-1.88 -2.8,-2.88 -1.76,-1.04 -3.96,-1.04 -2.24,0 -4.04,1.04 -1.76,1 -2.8,2.88 -1,1.88 -1,4.28 0,2.4 1,4.28 1.04,1.88 2.8,2.92 1.8,1 4.04,1 z"
             inkscape:connector-curvature="0" />
          <path
             id="path305"
             style="font-style:normal;font-variant:normal;font-weight:normal;font-stretch:normal;font-family:Montserrat;-inkscape-font-specification:Montserrat;text-align:center;text-anchor:middle;fill:#000000;fill-opacity:1"
             d="m 444.16605,435.42687 h 2.84 v 21.04 h -2.84 z m 1.44,-4.6 q -0.88,0 -1.48,-0.6 -0.6,-0.6 -0.6,-1.44 0,-0.8 0.6,-1.4 0.6,-0.6 1.48,-0.6 0.88,0 1.48,0.6 0.6,0.56 0.6,1.36 0,0.88 -0.6,1.48 -0.6,0.6 -1.48,0.6 z"
             inkscape:connector-curvature="0" />
          <path
             id="path307"
             style="font-style:normal;font-variant:normal;font-weight:normal;font-stretch:normal;font-family:Montserrat;-inkscape-font-specification:Montserrat;text-align:center;text-anchor:middle;fill:#000000;fill-opacity:1"
             d="m 481.1873,435.26687 q 3.96,0 6.2,2.28 2.28,2.28 2.28,6.72 v 12.2 h -2.84 v -11.92 q 0,-3.28 -1.6,-5 -1.56,-1.72 -4.44,-1.72 -3.28,0 -5.16,2.04 -1.88,2 -1.88,5.56 v 11.04 h -2.84 v -11.92 q 0,-3.28 -1.6,-5 -1.56,-1.72 -4.48,-1.72 -3.24,0 -5.16,2.04 -1.88,2 -1.88,5.56 v 11.04 h -2.84 v -21.04 h 2.72 v 3.84 q 1.12,-1.92 3.12,-2.96 2,-1.04 4.6,-1.04 2.64,0 4.56,1.12 1.96,1.12 2.92,3.32 1.16,-2.08 3.32,-3.24 2.2,-1.2 5,-1.2 z"
             inkscape:connector-curvature="0" />
          <path
             id="path309"
             style="font-style:normal;font-variant:normal;font-weight:normal;font-stretch:normal;font-family:Montserrat;-inkscape-font-specification:Montserrat;text-align:center;text-anchor:middle;fill:#000000;fill-opacity:1"
             d="m 508.20918,435.26687 q 2.96,0 5.36,1.36 2.4,1.32 3.76,3.76 1.36,2.44 1.36,5.56 0,3.16 -1.36,5.6 -1.36,2.44 -3.76,3.8 -2.36,1.32 -5.36,1.32 -2.56,0 -4.64,-1.04 -2.04,-1.08 -3.36,-3.12 v 11.72 h -2.84 v -28.8 h 2.72 v 4.16 q 1.28,-2.08 3.36,-3.2 2.12,-1.12 4.76,-1.12 z m -0.2,18.88 q 2.2,0 4,-1 1.8,-1.04 2.8,-2.92 1.04,-1.88 1.04,-4.28 0,-2.4 -1.04,-4.24 -1,-1.88 -2.8,-2.92 -1.8,-1.04 -4,-1.04 -2.24,0 -4.04,1.04 -1.76,1.04 -2.8,2.92 -1,1.84 -1,4.24 0,2.4 1,4.28 1.04,1.88 2.8,2.92 1.8,1 4.04,1 z"
             inkscape:connector-curvature="0" />
          <path
             id="path311"
             style="font-style:normal;font-variant:normal;font-weight:normal;font-stretch:normal;font-family:Montserrat;-inkscape-font-specification:Montserrat;text-align:center;text-anchor:middle;fill:#000000;fill-opacity:1"
             d="m 524.47855,426.78687 h 2.84 v 29.68 h -2.84 z"
             inkscape:connector-curvature="0" />
          <path
             id="path313"
             style="font-style:normal;font-variant:normal;font-weight:normal;font-stretch:normal;font-family:Montserrat;-inkscape-font-specification:Montserrat;text-align:center;text-anchor:middle;fill:#000000;fill-opacity:1"
             d="m 553.5798,446.82687 h -17.6 q 0.24,3.28 2.52,5.32 2.28,2 5.76,2 1.96,0 3.6,-0.68 1.64,-0.72 2.84,-2.08 l 1.6,1.84 q -1.4,1.68 -3.52,2.56 -2.08,0.88 -4.6,0.88 -3.24,0 -5.76,-1.36 -2.48,-1.4 -3.88,-3.84 -1.4,-2.44 -1.4,-5.52 0,-3.08 1.32,-5.52 1.36,-2.44 3.68,-3.8 2.36,-1.36 5.28,-1.36 2.92,0 5.24,1.36 2.32,1.36 3.64,3.8 1.32,2.4 1.32,5.52 z m -10.16,-9.12 q -3.04,0 -5.12,1.96 -2.04,1.92 -2.32,5.04 h 14.92 q -0.28,-3.12 -2.36,-5.04 -2.04,-1.96 -5.12,-1.96 z"
             inkscape:connector-curvature="0" />
          <path
             id="path315"
             style="font-style:normal;font-variant:normal;font-weight:normal;font-stretch:normal;font-family:Montserrat;-inkscape-font-specification:Montserrat;text-align:center;text-anchor:middle;fill:#000000;fill-opacity:1"
             d="m 585.64043,435.26687 q 3.96,0 6.2,2.28 2.28,2.28 2.28,6.72 v 12.2 h -2.84 v -11.92 q 0,-3.28 -1.6,-5 -1.56,-1.72 -4.44,-1.72 -3.28,0 -5.16,2.04 -1.88,2 -1.88,5.56 v 11.04 h -2.84 v -11.92 q 0,-3.28 -1.6,-5 -1.56,-1.72 -4.48,-1.72 -3.24,0 -5.16,2.04 -1.88,2 -1.88,5.56 v 11.04 h -2.84 v -21.04 h 2.72 v 3.84 q 1.12,-1.92 3.12,-2.96 2,-1.04 4.6,-1.04 2.64,0 4.56,1.12 1.96,1.12 2.92,3.32 1.16,-2.08 3.32,-3.24 2.2,-1.2 5,-1.2 z"
             inkscape:connector-curvature="0" />
          <path
             id="path317"
             style="font-style:normal;font-variant:normal;font-weight:normal;font-stretch:normal;font-family:Montserrat;-inkscape-font-specification:Montserrat;text-align:center;text-anchor:middle;fill:#000000;fill-opacity:1"
             d="m 620.22043,446.82687 h -17.6 q 0.24,3.28 2.52,5.32 2.28,2 5.76,2 1.96,0 3.6,-0.68 1.64,-0.72 2.84,-2.08 l 1.6,1.84 q -1.4,1.68 -3.52,2.56 -2.08,0.88 -4.6,0.88 -3.24,0 -5.76,-1.36 -2.48,-1.4 -3.88,-3.84 -1.4,-2.44 -1.4,-5.52 0,-3.08 1.32,-5.52 1.36,-2.44 3.68,-3.8 2.36,-1.36 5.28,-1.36 2.92,0 5.24,1.36 2.32,1.36 3.64,3.8 1.32,2.4 1.32,5.52 z m -10.16,-9.12 q -3.04,0 -5.12,1.96 -2.04,1.92 -2.32,5.04 h 14.92 q -0.28,-3.12 -2.36,-5.04 -2.04,-1.96 -5.12,-1.96 z"
             inkscape:connector-curvature="0" />
          <path
             id="path319"
             style="font-style:normal;font-variant:normal;font-weight:normal;font-stretch:normal;font-family:Montserrat;-inkscape-font-specification:Montserrat;text-align:center;text-anchor:middle;fill:#000000;fill-opacity:1"
             d="m 636.76105,435.26687 q 3.96,0 6.28,2.32 2.36,2.28 2.36,6.68 v 12.2 h -2.84 v -11.92 q 0,-3.28 -1.64,-5 -1.64,-1.72 -4.68,-1.72 -3.4,0 -5.4,2.04 -1.96,2 -1.96,5.56 v 11.04 h -2.84 v -21.04 h 2.72 v 3.88 q 1.16,-1.92 3.2,-2.96 2.08,-1.08 4.8,-1.08 z"
             inkscape:connector-curvature="0" />
          <path
             id="path321"
             style="font-style:normal;font-variant:normal;font-weight:normal;font-stretch:normal;font-family:Montserrat;-inkscape-font-specification:Montserrat;text-align:center;text-anchor:middle;fill:#000000;fill-opacity:1"
             d="m 664.23043,455.18687 q -0.8,0.72 -2,1.12 -1.16,0.36 -2.44,0.36 -2.96,0 -4.56,-1.6 -1.6,-1.6 -1.6,-4.52 v -12.72 h -3.76 v -2.4 h 3.76 v -4.6 h 2.84 v 4.6 h 6.4 v 2.4 h -6.4 v 12.56 q 0,1.88 0.92,2.88 0.96,0.96 2.72,0.96 0.88,0 1.68,-0.28 0.84,-0.28 1.44,-0.8 z"
             inkscape:connector-curvature="0" />
          <path
             id="path323"
             style="font-style:normal;font-variant:normal;font-weight:normal;font-stretch:normal;font-family:Montserrat;-inkscape-font-specification:Montserrat;text-align:center;text-anchor:middle;fill:#000000;fill-opacity:1"
             d="m 200.50918,507.40042 q -2.56,0 -4.92,-0.72 -2.32,-0.76 -3.64,-1.88 l 1.28,-2.24 q 1.32,1.04 3.32,1.72 2,0.64 4.16,0.64 2.88,0 4.24,-0.88 1.4,-0.92 1.4,-2.56 0,-1.16 -0.76,-1.8 -0.76,-0.68 -1.92,-1 -1.16,-0.36 -3.08,-0.68 -2.56,-0.48 -4.12,-0.96 -1.56,-0.52 -2.68,-1.72 -1.08,-1.2 -1.08,-3.32 0,-2.64 2.2,-4.32 2.2,-1.68 6.12,-1.68 2.04,0 4.08,0.56 2.04,0.52 3.36,1.4 l -1.24,2.28 q -2.6,-1.8 -6.2,-1.8 -2.72,0 -4.12,0.96 -1.36,0.96 -1.36,2.52 0,1.2 0.76,1.92 0.8,0.72 1.96,1.08 1.16,0.32 3.2,0.68 2.52,0.48 4.04,0.96 1.52,0.48 2.6,1.64 1.08,1.16 1.08,3.2 0,2.76 -2.32,4.4 -2.28,1.6 -6.36,1.6 z"
             inkscape:connector-curvature="0" />
          <path
             id="path325"
             style="font-style:normal;font-variant:normal;font-weight:normal;font-stretch:normal;font-family:Montserrat;-inkscape-font-specification:Montserrat;text-align:center;text-anchor:middle;fill:#000000;fill-opacity:1"
             d="m 225.48043,505.92042 q -0.8,0.72 -2,1.12 -1.16,0.36 -2.44,0.36 -2.96,0 -4.56,-1.6 -1.6,-1.6 -1.6,-4.52 v -12.72 h -3.76 v -2.4 h 3.76 v -4.6 h 2.84 v 4.6 h 6.4 v 2.4 h -6.4 v 12.56 q 0,1.88 0.92,2.88 0.96,0.96 2.72,0.96 0.88,0 1.68,-0.28 0.84,-0.28 1.44,-0.8 z"
             inkscape:connector-curvature="0" />
          <path
             id="path327"
             style="font-style:normal;font-variant:normal;font-weight:normal;font-stretch:normal;font-family:Montserrat;-inkscape-font-specification:Montserrat;text-align:center;text-anchor:middle;fill:#000000;fill-opacity:1"
             d="m 249.61043,486.16042 v 21.04 h -2.72 v -3.84 q -1.12,1.92 -3.08,3 -1.96,1.04 -4.48,1.04 -4.12,0 -6.52,-2.28 -2.36,-2.32 -2.36,-6.76 v -12.2 h 2.84 v 11.92 q 0,3.32 1.64,5.04 1.64,1.72 4.68,1.72 3.32,0 5.24,-2 1.92,-2.04 1.92,-5.64 v -11.04 z"
             inkscape:connector-curvature="0" />
          <path
             id="path329"
             style="font-style:normal;font-variant:normal;font-weight:normal;font-stretch:normal;font-family:Montserrat;-inkscape-font-specification:Montserrat;text-align:center;text-anchor:middle;fill:#000000;fill-opacity:1"
             d="m 276.80355,477.52042 v 29.68 h -2.72 v -4.16 q -1.28,2.12 -3.4,3.24 -2.08,1.12 -4.72,1.12 -2.96,0 -5.36,-1.36 -2.4,-1.36 -3.76,-3.8 -1.36,-2.44 -1.36,-5.56 0,-3.12 1.36,-5.56 1.36,-2.44 3.76,-3.76 2.4,-1.36 5.36,-1.36 2.56,0 4.6,1.08 2.08,1.04 3.4,3.08 v -12.64 z m -10.6,27.36 q 2.2,0 3.96,-1 1.8,-1.04 2.8,-2.92 1.04,-1.88 1.04,-4.28 0,-2.4 -1.04,-4.28 -1,-1.88 -2.8,-2.88 -1.76,-1.04 -3.96,-1.04 -2.24,0 -4.04,1.04 -1.76,1 -2.8,2.88 -1,1.88 -1,4.28 0,2.4 1,4.28 1.04,1.88 2.8,2.92 1.8,1 4.04,1 z"
             inkscape:connector-curvature="0" />
          <path
             id="path331"
             style="font-style:normal;font-variant:normal;font-weight:normal;font-stretch:normal;font-family:Montserrat;-inkscape-font-specification:Montserrat;text-align:center;text-anchor:middle;fill:#000000;fill-opacity:1"
             d="m 303.03293,497.56042 h -17.6 q 0.24,3.28 2.52,5.32 2.28,2 5.76,2 1.96,0 3.6,-0.68 1.64,-0.72 2.84,-2.08 l 1.6,1.84 q -1.4,1.68 -3.52,2.56 -2.08,0.88 -4.6,0.88 -3.24,0 -5.76,-1.36 -2.48,-1.4 -3.88,-3.84 -1.4,-2.44 -1.4,-5.52 0,-3.08 1.32,-5.52 1.36,-2.44 3.68,-3.8 2.36,-1.36 5.28,-1.36 2.92,0 5.24,1.36 2.32,1.36 3.64,3.8 1.32,2.4 1.32,5.52 z m -10.16,-9.12 q -3.04,0 -5.12,1.96 -2.04,1.92 -2.32,5.04 h 14.92 q -0.28,-3.12 -2.36,-5.04 -2.04,-1.96 -5.12,-1.96 z"
             inkscape:connector-curvature="0" />
          <path
             id="path333"
             style="font-style:normal;font-variant:normal;font-weight:normal;font-stretch:normal;font-family:Montserrat;-inkscape-font-specification:Montserrat;text-align:center;text-anchor:middle;fill:#000000;fill-opacity:1"
             d="m 319.57355,486.00042 q 3.96,0 6.28,2.32 2.36,2.28 2.36,6.68 v 12.2 h -2.84 v -11.92 q 0,-3.28 -1.64,-5 -1.64,-1.72 -4.68,-1.72 -3.4,0 -5.4,2.04 -1.96,2 -1.96,5.56 v 11.04 h -2.84 v -21.04 h 2.72 v 3.88 q 1.16,-1.92 3.2,-2.96 2.08,-1.08 4.8,-1.08 z"
             inkscape:connector-curvature="0" />
          <path
             id="path335"
             style="font-style:normal;font-variant:normal;font-weight:normal;font-stretch:normal;font-family:Montserrat;-inkscape-font-specification:Montserrat;text-align:center;text-anchor:middle;fill:#000000;fill-opacity:1"
             d="m 347.04293,505.92042 q -0.8,0.72 -2,1.12 -1.16,0.36 -2.44,0.36 -2.96,0 -4.56,-1.6 -1.6,-1.6 -1.6,-4.52 v -12.72 h -3.76 v -2.4 h 3.76 v -4.6 h 2.84 v 4.6 h 6.4 v 2.4 h -6.4 v 12.56 q 0,1.88 0.92,2.88 0.96,0.96 2.72,0.96 0.88,0 1.68,-0.28 0.84,-0.28 1.44,-0.8 z"
             inkscape:connector-curvature="0" />
          <path
             id="path337"
             style="font-style:normal;font-variant:normal;font-weight:normal;font-stretch:normal;font-family:Montserrat;-inkscape-font-specification:Montserrat;text-align:center;text-anchor:middle;fill:#000000;fill-opacity:1"
             d="m 371.40168,507.40042 q -3.12,0 -5.6,-1.36 -2.44,-1.36 -3.84,-3.8 -1.4,-2.48 -1.4,-5.56 0,-3.08 1.4,-5.52 1.4,-2.44 3.84,-3.8 2.48,-1.36 5.6,-1.36 2.72,0 4.84,1.08 2.16,1.04 3.4,3.08 l -2.12,1.44 q -1.04,-1.56 -2.64,-2.32 -1.6,-0.8 -3.48,-0.8 -2.28,0 -4.12,1.04 -1.8,1 -2.84,2.88 -1,1.88 -1,4.28 0,2.44 1,4.32 1.04,1.84 2.84,2.88 1.84,1 4.12,1 1.88,0 3.48,-0.76 1.6,-0.76 2.64,-2.32 l 2.12,1.44 q -1.24,2.04 -3.4,3.12 -2.16,1.04 -4.84,1.04 z"
             inkscape:connector-curvature="0" />
          <path
             id="path339"
             style="font-style:normal;font-variant:normal;font-weight:normal;font-stretch:normal;font-family:Montserrat;-inkscape-font-specification:Montserrat;text-align:center;text-anchor:middle;fill:#000000;fill-opacity:1"
             d="m 403.11105,497.56042 h -17.6 q 0.24,3.28 2.52,5.32 2.28,2 5.76,2 1.96,0 3.6,-0.68 1.64,-0.72 2.84,-2.08 l 1.6,1.84 q -1.4,1.68 -3.52,2.56 -2.08,0.88 -4.6,0.88 -3.24,0 -5.76,-1.36 -2.48,-1.4 -3.88,-3.84 -1.4,-2.44 -1.4,-5.52 0,-3.08 1.32,-5.52 1.36,-2.44 3.68,-3.8 2.36,-1.36 5.28,-1.36 2.92,0 5.24,1.36 2.32,1.36 3.64,3.8 1.32,2.4 1.32,5.52 z m -10.16,-9.12 q -3.04,0 -5.12,1.96 -2.04,1.92 -2.32,5.04 h 14.92 q -0.28,-3.12 -2.36,-5.04 -2.04,-1.96 -5.12,-1.96 z"
             inkscape:connector-curvature="0" />
          <path
             id="path341"
             style="font-style:normal;font-variant:normal;font-weight:normal;font-stretch:normal;font-family:Montserrat;-inkscape-font-specification:Montserrat;text-align:center;text-anchor:middle;fill:#000000;fill-opacity:1"
             d="m 419.65168,486.00042 q 3.96,0 6.28,2.32 2.36,2.28 2.36,6.68 v 12.2 h -2.84 v -11.92 q 0,-3.28 -1.64,-5 -1.64,-1.72 -4.68,-1.72 -3.4,0 -5.4,2.04 -1.96,2 -1.96,5.56 v 11.04 h -2.84 v -21.04 h 2.72 v 3.88 q 1.16,-1.92 3.2,-2.96 2.08,-1.08 4.8,-1.08 z"
             inkscape:connector-curvature="0" />
          <path
             id="path343"
             style="font-style:normal;font-variant:normal;font-weight:normal;font-stretch:normal;font-family:Montserrat;-inkscape-font-specification:Montserrat;text-align:center;text-anchor:middle;fill:#000000;fill-opacity:1"
             d="m 447.12105,505.92042 q -0.8,0.72 -2,1.12 -1.16,0.36 -2.44,0.36 -2.96,0 -4.56,-1.6 -1.6,-1.6 -1.6,-4.52 v -12.72 h -3.76 v -2.4 h 3.76 v -4.6 h 2.84 v 4.6 h 6.4 v 2.4 h -6.4 v 12.56 q 0,1.88 0.92,2.88 0.96,0.96 2.72,0.96 0.88,0 1.68,-0.28 0.84,-0.28 1.44,-0.8 z"
             inkscape:connector-curvature="0" />
          <path
             id="path345"
             style="font-style:normal;font-variant:normal;font-weight:normal;font-stretch:normal;font-family:Montserrat;-inkscape-font-specification:Montserrat;text-align:center;text-anchor:middle;fill:#000000;fill-opacity:1"
             d="m 455.01105,490.28042 q 1,-2.12 2.96,-3.2 2,-1.08 4.92,-1.08 v 2.76 l -0.68,-0.04 q -3.32,0 -5.2,2.04 -1.88,2.04 -1.88,5.72 v 10.72 h -2.84 v -21.04 h 2.72 z"
             inkscape:connector-curvature="0" />
          <path
             id="path347"
             style="font-style:normal;font-variant:normal;font-weight:normal;font-stretch:normal;font-family:Montserrat;-inkscape-font-specification:Montserrat;text-align:center;text-anchor:middle;fill:#000000;fill-opacity:1"
             d="m 467.99418,486.16042 h 2.84 v 21.04 h -2.84 z m 1.44,-4.6 q -0.88,0 -1.48,-0.6 -0.6,-0.6 -0.6,-1.44 0,-0.8 0.6,-1.4 0.6,-0.6 1.48,-0.6 0.88,0 1.48,0.6 0.6,0.56 0.6,1.36 0,0.88 -0.6,1.48 -0.6,0.6 -1.48,0.6 z"
             inkscape:connector-curvature="0" />
          <path
             id="path349"
             style="font-style:normal;font-variant:normal;font-weight:normal;font-stretch:normal;font-family:Montserrat;-inkscape-font-specification:Montserrat;text-align:center;text-anchor:middle;fill:#000000;fill-opacity:1"
             d="m 487.49543,507.40042 q -3.12,0 -5.6,-1.36 -2.44,-1.36 -3.84,-3.8 -1.4,-2.48 -1.4,-5.56 0,-3.08 1.4,-5.52 1.4,-2.44 3.84,-3.8 2.48,-1.36 5.6,-1.36 2.72,0 4.84,1.08 2.16,1.04 3.4,3.08 l -2.12,1.44 q -1.04,-1.56 -2.64,-2.32 -1.6,-0.8 -3.48,-0.8 -2.28,0 -4.12,1.04 -1.8,1 -2.84,2.88 -1,1.88 -1,4.28 0,2.44 1,4.32 1.04,1.84 2.84,2.88 1.84,1 4.12,1 1.88,0 3.48,-0.76 1.6,-0.76 2.64,-2.32 l 2.12,1.44 q -1.24,2.04 -3.4,3.12 -2.16,1.04 -4.84,1.04 z"
             inkscape:connector-curvature="0" />
          <path
             id="path351"
             style="font-style:normal;font-variant:normal;font-weight:normal;font-stretch:normal;font-family:Montserrat;-inkscape-font-specification:Montserrat;text-align:center;text-anchor:middle;fill:#000000;fill-opacity:1"
             d="m 511.74418,477.52042 h 2.84 v 29.68 h -2.84 z"
             inkscape:connector-curvature="0" />
          <path
             id="path353"
             style="font-style:normal;font-variant:normal;font-weight:normal;font-stretch:normal;font-family:Montserrat;-inkscape-font-specification:Montserrat;text-align:center;text-anchor:middle;fill:#000000;fill-opacity:1"
             d="m 540.84543,497.56042 h -17.6 q 0.24,3.28 2.52,5.32 2.28,2 5.76,2 1.96,0 3.6,-0.68 1.64,-0.72 2.84,-2.08 l 1.6,1.84 q -1.4,1.68 -3.52,2.56 -2.08,0.88 -4.6,0.88 -3.24,0 -5.76,-1.36 -2.48,-1.4 -3.88,-3.84 -1.4,-2.44 -1.4,-5.52 0,-3.08 1.32,-5.52 1.36,-2.44 3.68,-3.8 2.36,-1.36 5.28,-1.36 2.92,0 5.24,1.36 2.32,1.36 3.64,3.8 1.32,2.4 1.32,5.52 z m -10.16,-9.12 q -3.04,0 -5.12,1.96 -2.04,1.92 -2.32,5.04 h 14.92 q -0.28,-3.12 -2.36,-5.04 -2.04,-1.96 -5.12,-1.96 z"
             inkscape:connector-curvature="0" />
          <path
             id="path355"
             style="font-style:normal;font-variant:normal;font-weight:normal;font-stretch:normal;font-family:Montserrat;-inkscape-font-specification:Montserrat;text-align:center;text-anchor:middle;fill:#000000;fill-opacity:1"
             d="m 553.40105,486.00042 q 4.12,0 6.32,2.08 2.2,2.04 2.2,6.08 v 13.04 h -2.72 v -3.28 q -0.96,1.64 -2.84,2.56 -1.84,0.92 -4.4,0.92 -3.52,0 -5.6,-1.68 -2.08,-1.68 -2.08,-4.44 0,-2.68 1.92,-4.32 1.96,-1.64 6.2,-1.64 h 6.68 v -1.28 q 0,-2.72 -1.52,-4.12 -1.52,-1.44 -4.44,-1.44 -2,0 -3.84,0.68 -1.84,0.64 -3.16,1.8 l -1.28,-2.12 q 1.6,-1.36 3.84,-2.08 2.24,-0.76 4.72,-0.76 z m -1,19.16 q 2.4,0 4.12,-1.08 1.72,-1.12 2.56,-3.2 v -3.44 h -6.6 q -5.4,0 -5.4,3.76 0,1.84 1.4,2.92 1.4,1.04 3.92,1.04 z"
             inkscape:connector-curvature="0" />
          <path
             id="path357"
             style="font-style:normal;font-variant:normal;font-weight:normal;font-stretch:normal;font-family:Montserrat;-inkscape-font-specification:Montserrat;text-align:center;text-anchor:middle;fill:#000000;fill-opacity:1"
             d="m 572.3548,490.28042 q 1,-2.12 2.96,-3.2 2,-1.08 4.92,-1.08 v 2.76 l -0.68,-0.04 q -3.32,0 -5.2,2.04 -1.88,2.04 -1.88,5.72 v 10.72 h -2.84 v -21.04 h 2.72 z"
             inkscape:connector-curvature="0" />
          <path
             id="path359"
             style="font-style:normal;font-variant:normal;font-weight:normal;font-stretch:normal;font-family:Montserrat;-inkscape-font-specification:Montserrat;text-align:center;text-anchor:middle;fill:#000000;fill-opacity:1"
             d="m 596.05793,486.00042 q 3.96,0 6.28,2.32 2.36,2.28 2.36,6.68 v 12.2 h -2.84 v -11.92 q 0,-3.28 -1.64,-5 -1.64,-1.72 -4.68,-1.72 -3.4,0 -5.4,2.04 -1.96,2 -1.96,5.56 v 11.04 h -2.84 v -21.04 h 2.72 v 3.88 q 1.16,-1.92 3.2,-2.96 2.08,-1.08 4.8,-1.08 z"
             inkscape:connector-curvature="0" />
          <path
             id="path361"
             style="font-style:normal;font-variant:normal;font-weight:normal;font-stretch:normal;font-family:Montserrat;-inkscape-font-specification:Montserrat;text-align:center;text-anchor:middle;fill:#000000;fill-opacity:1"
             d="m 612.4473,486.16042 h 2.84 v 21.04 h -2.84 z m 1.44,-4.6 q -0.88,0 -1.48,-0.6 -0.6,-0.6 -0.6,-1.44 0,-0.8 0.6,-1.4 0.6,-0.6 1.48,-0.6 0.88,0 1.48,0.6 0.6,0.56 0.6,1.36 0,0.88 -0.6,1.48 -0.6,0.6 -1.48,0.6 z"
             inkscape:connector-curvature="0" />
          <path
             id="path363"
             style="font-style:normal;font-variant:normal;font-weight:normal;font-stretch:normal;font-family:Montserrat;-inkscape-font-specification:Montserrat;text-align:center;text-anchor:middle;fill:#000000;fill-opacity:1"
             d="m 633.94855,486.00042 q 3.96,0 6.28,2.32 2.36,2.28 2.36,6.68 v 12.2 h -2.84 v -11.92 q 0,-3.28 -1.64,-5 -1.64,-1.72 -4.68,-1.72 -3.4,0 -5.4,2.04 -1.96,2 -1.96,5.56 v 11.04 h -2.84 v -21.04 h 2.72 v 3.88 q 1.16,-1.92 3.2,-2.96 2.08,-1.08 4.8,-1.08 z"
             inkscape:connector-curvature="0" />
          <path
             id="path365"
             style="font-style:normal;font-variant:normal;font-weight:normal;font-stretch:normal;font-family:Montserrat;-inkscape-font-specification:Montserrat;text-align:center;text-anchor:middle;fill:#000000;fill-opacity:1"
             d="m 669.89605,486.16042 v 18.48 q 0,5.36 -2.64,7.92 -2.6,2.6 -7.88,2.6 -2.92,0 -5.56,-0.88 -2.6,-0.84 -4.24,-2.36 l 1.44,-2.16 q 1.52,1.36 3.68,2.12 2.2,0.76 4.6,0.76 4,0 5.88,-1.88 1.88,-1.84 1.88,-5.76 v -2.68 q -1.32,2 -3.48,3.04 -2.12,1.04 -4.72,1.04 -2.96,0 -5.4,-1.28 -2.4,-1.32 -3.8,-3.64 -1.36,-2.36 -1.36,-5.32 0,-2.96 1.36,-5.28 1.4,-2.32 3.8,-3.6 2.4,-1.28 5.4,-1.28 2.68,0 4.84,1.08 2.16,1.08 3.48,3.12 v -4.04 z m -10.76,17.72 q 2.28,0 4.12,-0.96 1.84,-1 2.84,-2.76 1.04,-1.76 1.04,-4 0,-2.24 -1.04,-3.96 -1,-1.76 -2.84,-2.72 -1.8,-1 -4.12,-1 -2.28,0 -4.12,0.96 -1.8,0.96 -2.84,2.72 -1,1.76 -1,4 0,2.24 1,4 1.04,1.76 2.84,2.76 1.84,0.96 4.12,0.96 z"
             inkscape:connector-curvature="0" />
          <path
             id="path367"
             style="font-style:normal;font-variant:normal;font-weight:normal;font-stretch:normal;font-family:Montserrat;-inkscape-font-specification:Montserrat;text-align:center;text-anchor:middle;fill:#000000;fill-opacity:1"
             d="m 334.8298,548.29397 h -17.6 q 0.24,3.28 2.52,5.32 2.28,2 5.76,2 1.96,0 3.6,-0.68 1.64,-0.72 2.84,-2.08 l 1.6,1.84 q -1.4,1.68 -3.52,2.56 -2.08,0.88 -4.6,0.88 -3.24,0 -5.76,-1.36 -2.48,-1.4 -3.88,-3.84 -1.4,-2.44 -1.4,-5.52 0,-3.08 1.32,-5.52 1.36,-2.44 3.68,-3.8 2.36,-1.36 5.28,-1.36 2.92,0 5.24,1.36 2.32,1.36 3.64,3.8 1.32,2.4 1.32,5.52 z m -10.16,-9.12 q -3.04,0 -5.12,1.96 -2.04,1.92 -2.32,5.04 h 14.92 q -0.28,-3.12 -2.36,-5.04 -2.04,-1.96 -5.12,-1.96 z"
             inkscape:connector-curvature="0" />
          <path
             id="path369"
             style="font-style:normal;font-variant:normal;font-weight:normal;font-stretch:normal;font-family:Montserrat;-inkscape-font-specification:Montserrat;text-align:center;text-anchor:middle;fill:#000000;fill-opacity:1"
             d="m 353.42543,557.93397 -6.68,-8.8 -6.72,8.8 h -3.2 l 8.32,-10.8 -7.92,-10.24 h 3.2 l 6.32,8.24 6.32,-8.24 h 3.12 l -7.92,10.24 8.4,10.8 z"
             inkscape:connector-curvature="0" />
          <path
             id="path371"
             style="font-style:normal;font-variant:normal;font-weight:normal;font-stretch:normal;font-family:Montserrat;-inkscape-font-specification:Montserrat;text-align:center;text-anchor:middle;fill:#000000;fill-opacity:1"
             d="m 372.19355,536.73397 q 2.96,0 5.36,1.36 2.4,1.32 3.76,3.76 1.36,2.44 1.36,5.56 0,3.16 -1.36,5.6 -1.36,2.44 -3.76,3.8 -2.36,1.32 -5.36,1.32 -2.56,0 -4.64,-1.04 -2.04,-1.08 -3.36,-3.12 v 11.72 h -2.84 v -28.8 h 2.72 v 4.16 q 1.28,-2.08 3.36,-3.2 2.12,-1.12 4.76,-1.12 z m -0.2,18.88 q 2.2,0 4,-1 1.8,-1.04 2.8,-2.92 1.04,-1.88 1.04,-4.28 0,-2.4 -1.04,-4.24 -1,-1.88 -2.8,-2.92 -1.8,-1.04 -4,-1.04 -2.24,0 -4.04,1.04 -1.76,1.04 -2.8,2.92 -1,1.84 -1,4.24 0,2.4 1,4.28 1.04,1.88 2.8,2.92 1.8,1 4.04,1 z"
             inkscape:connector-curvature="0" />
          <path
             id="path373"
             style="font-style:normal;font-variant:normal;font-weight:normal;font-stretch:normal;font-family:Montserrat;-inkscape-font-specification:Montserrat;text-align:center;text-anchor:middle;fill:#000000;fill-opacity:1"
             d="m 406.78293,548.29397 h -17.6 q 0.24,3.28 2.52,5.32 2.28,2 5.76,2 1.96,0 3.6,-0.68 1.64,-0.72 2.84,-2.08 l 1.6,1.84 q -1.4,1.68 -3.52,2.56 -2.08,0.88 -4.6,0.88 -3.24,0 -5.76,-1.36 -2.48,-1.4 -3.88,-3.84 -1.4,-2.44 -1.4,-5.52 0,-3.08 1.32,-5.52 1.36,-2.44 3.68,-3.8 2.36,-1.36 5.28,-1.36 2.92,0 5.24,1.36 2.32,1.36 3.64,3.8 1.32,2.4 1.32,5.52 z m -10.16,-9.12 q -3.04,0 -5.12,1.96 -2.04,1.92 -2.32,5.04 h 14.92 q -0.28,-3.12 -2.36,-5.04 -2.04,-1.96 -5.12,-1.96 z"
             inkscape:connector-curvature="0" />
          <path
             id="path375"
             style="font-style:normal;font-variant:normal;font-weight:normal;font-stretch:normal;font-family:Montserrat;-inkscape-font-specification:Montserrat;text-align:center;text-anchor:middle;fill:#000000;fill-opacity:1"
             d="m 415.32355,541.01397 q 1,-2.12 2.96,-3.2 2,-1.08 4.92,-1.08 v 2.76 l -0.68,-0.04 q -3.32,0 -5.2,2.04 -1.88,2.04 -1.88,5.72 v 10.72 h -2.84 v -21.04 h 2.72 z"
             inkscape:connector-curvature="0" />
          <path
             id="path377"
             style="font-style:normal;font-variant:normal;font-weight:normal;font-stretch:normal;font-family:Montserrat;-inkscape-font-specification:Montserrat;text-align:center;text-anchor:middle;fill:#000000;fill-opacity:1"
             d="m 428.30668,536.89397 h 2.84 v 21.04 h -2.84 z m 1.44,-4.6 q -0.88,0 -1.48,-0.6 -0.6,-0.6 -0.6,-1.44 0,-0.8 0.6,-1.4 0.6,-0.6 1.48,-0.6 0.88,0 1.48,0.6 0.6,0.56 0.6,1.36 0,0.88 -0.6,1.48 -0.6,0.6 -1.48,0.6 z"
             inkscape:connector-curvature="0" />
          <path
             id="path379"
             style="font-style:normal;font-variant:normal;font-weight:normal;font-stretch:normal;font-family:Montserrat;-inkscape-font-specification:Montserrat;text-align:center;text-anchor:middle;fill:#000000;fill-opacity:1"
             d="m 457.40793,548.29397 h -17.6 q 0.24,3.28 2.52,5.32 2.28,2 5.76,2 1.96,0 3.6,-0.68 1.64,-0.72 2.84,-2.08 l 1.6,1.84 q -1.4,1.68 -3.52,2.56 -2.08,0.88 -4.6,0.88 -3.24,0 -5.76,-1.36 -2.48,-1.4 -3.88,-3.84 -1.4,-2.44 -1.4,-5.52 0,-3.08 1.32,-5.52 1.36,-2.44 3.68,-3.8 2.36,-1.36 5.28,-1.36 2.92,0 5.24,1.36 2.32,1.36 3.64,3.8 1.32,2.4 1.32,5.52 z m -10.16,-9.12 q -3.04,0 -5.12,1.96 -2.04,1.92 -2.32,5.04 h 14.92 q -0.28,-3.12 -2.36,-5.04 -2.04,-1.96 -5.12,-1.96 z"
             inkscape:connector-curvature="0" />
          <path
             id="path381"
             style="font-style:normal;font-variant:normal;font-weight:normal;font-stretch:normal;font-family:Montserrat;-inkscape-font-specification:Montserrat;text-align:center;text-anchor:middle;fill:#000000;fill-opacity:1"
             d="m 473.94855,536.73397 q 3.96,0 6.28,2.32 2.36,2.28 2.36,6.68 v 12.2 h -2.84 v -11.92 q 0,-3.28 -1.64,-5 -1.64,-1.72 -4.68,-1.72 -3.4,0 -5.4,2.04 -1.96,2 -1.96,5.56 v 11.04 h -2.84 v -21.04 h 2.72 v 3.88 q 1.16,-1.92 3.2,-2.96 2.08,-1.08 4.8,-1.08 z"
             inkscape:connector-curvature="0" />
          <path
             id="path383"
             style="font-style:normal;font-variant:normal;font-weight:normal;font-stretch:normal;font-family:Montserrat;-inkscape-font-specification:Montserrat;text-align:center;text-anchor:middle;fill:#000000;fill-opacity:1"
             d="m 499.13605,558.13397 q -3.12,0 -5.6,-1.36 -2.44,-1.36 -3.84,-3.8 -1.4,-2.48 -1.4,-5.56 0,-3.08 1.4,-5.52 1.4,-2.44 3.84,-3.8 2.48,-1.36 5.6,-1.36 2.72,0 4.84,1.08 2.16,1.04 3.4,3.08 l -2.12,1.44 q -1.04,-1.56 -2.64,-2.32 -1.6,-0.8 -3.48,-0.8 -2.28,0 -4.12,1.04 -1.8,1 -2.84,2.88 -1,1.88 -1,4.28 0,2.44 1,4.32 1.04,1.84 2.84,2.88 1.84,1 4.12,1 1.88,0 3.48,-0.76 1.6,-0.76 2.64,-2.32 l 2.12,1.44 q -1.24,2.04 -3.4,3.12 -2.16,1.04 -4.84,1.04 z"
             inkscape:connector-curvature="0" />
          <path
             id="path385"
             style="font-style:normal;font-variant:normal;font-weight:normal;font-stretch:normal;font-family:Montserrat;-inkscape-font-specification:Montserrat;text-align:center;text-anchor:middle;fill:#000000;fill-opacity:1"
             d="m 530.84543,548.29397 h -17.6 q 0.24,3.28 2.52,5.32 2.28,2 5.76,2 1.96,0 3.6,-0.68 1.64,-0.72 2.84,-2.08 l 1.6,1.84 q -1.4,1.68 -3.52,2.56 -2.08,0.88 -4.6,0.88 -3.24,0 -5.76,-1.36 -2.48,-1.4 -3.88,-3.84 -1.4,-2.44 -1.4,-5.52 0,-3.08 1.32,-5.52 1.36,-2.44 3.68,-3.8 2.36,-1.36 5.28,-1.36 2.92,0 5.24,1.36 2.32,1.36 3.64,3.8 1.32,2.4 1.32,5.52 z m -10.16,-9.12 q -3.04,0 -5.12,1.96 -2.04,1.92 -2.32,5.04 h 14.92 q -0.28,-3.12 -2.36,-5.04 -2.04,-1.96 -5.12,-1.96 z"
             inkscape:connector-curvature="0" />
          <path
             id="path387"
             style="font-style:normal;font-variant:normal;font-weight:normal;font-stretch:normal;font-family:Montserrat;-inkscape-font-specification:Montserrat;text-align:center;text-anchor:middle;fill:#000000;fill-opacity:1"
             d="m 542.30605,558.13397 q -2.56,0 -4.92,-0.72 -2.32,-0.76 -3.64,-1.88 l 1.28,-2.24 q 1.32,1.04 3.32,1.72 2,0.64 4.16,0.64 2.88,0 4.24,-0.88 1.4,-0.92 1.4,-2.56 0,-1.16 -0.76,-1.8 -0.76,-0.68 -1.92,-1 -1.16,-0.36 -3.08,-0.68 -2.56,-0.48 -4.12,-0.96 -1.56,-0.52 -2.68,-1.72 -1.08,-1.2 -1.08,-3.32 0,-2.64 2.2,-4.32 2.2,-1.68 6.12,-1.68 2.04,0 4.08,0.56 2.04,0.52 3.36,1.4 l -1.24,2.28 q -2.6,-1.8 -6.2,-1.8 -2.72,0 -4.12,0.96 -1.36,0.96 -1.36,2.52 0,1.2 0.76,1.92 0.8,0.72 1.96,1.08 1.16,0.32 3.2,0.68 2.52,0.48 4.04,0.96 1.52,0.48 2.6,1.64 1.08,1.16 1.08,3.2 0,2.76 -2.32,4.4 -2.28,1.6 -6.36,1.6 z"
             inkscape:connector-curvature="0" />
        </g>
      </g>
    </g>
  </g>
</svg>
