<?xml version="1.0" encoding="UTF-8" standalone="no"?>
<!-- Created with Inkscape (http://www.inkscape.org/) -->

<svg
   xmlns:dc="http://purl.org/dc/elements/1.1/"
   xmlns:cc="http://creativecommons.org/ns#"
   xmlns:rdf="http://www.w3.org/1999/02/22-rdf-syntax-ns#"
   xmlns:svg="http://www.w3.org/2000/svg"
   xmlns="http://www.w3.org/2000/svg"
   xmlns:sodipodi="http://sodipodi.sourceforge.net/DTD/sodipodi-0.dtd"
   xmlns:inkscape="http://www.inkscape.org/namespaces/inkscape"
   width="183.69643mm"
   height="176.89285mm"
   viewBox="0 0 183.69643 176.89285"
   version="1.1"
   id="svg102"
   inkscape:version="0.92.3 (2405546, 2018-03-11)"
   sodipodi:docname="mission_2_beige.svg">
  <defs
     id="defs96" />
  <sodipodi:namedview
     id="base"
     pagecolor="#ffffff"
     bordercolor="#666666"
     borderopacity="1.0"
     inkscape:pageopacity="0.0"
     inkscape:pageshadow="2"
     inkscape:zoom="0.35"
     inkscape:cx="-100.00002"
     inkscape:cy="388.57144"
     inkscape:document-units="mm"
     inkscape:current-layer="g867"
     showgrid="false"
     inkscape:window-width="1920"
     inkscape:window-height="1017"
     inkscape:window-x="0"
     inkscape:window-y="30"
     inkscape:window-maximized="1"
     fit-margin-top="0"
     fit-margin-left="0"
     fit-margin-right="0"
     fit-margin-bottom="0" />
  <metadata
     id="metadata99">
    <rdf:RDF>
      <cc:Work
         rdf:about="">
        <dc:format>image/svg+xml</dc:format>
        <dc:type
           rdf:resource="http://purl.org/dc/dcmitype/StillImage" />
        <dc:title></dc:title>
      </cc:Work>
    </rdf:RDF>
  </metadata>
  <g
     inkscape:label="Layer 1"
     inkscape:groupmode="layer"
     id="layer1"
     transform="translate(-16.25298,-74.750006)">
    <g
       transform="translate(-111.92034,81.962279)"
       id="g867">
      <g
         id="g914">
        <path
           id="path3713-6-9"
           d="M 311.86974,81.234154 A 91.848213,88.446426 0 0 1 220.02153,169.68058 91.848213,88.446426 0 0 1 128.17332,81.234154 91.848213,88.446426 0 0 1 220.02153,-7.2122726 91.848213,88.446426 0 0 1 311.86974,81.234154 Z"
           style="fill:#e9e1cc;fill-opacity:1;stroke-width:0.26458332"
           inkscape:connector-curvature="0" />
        <g
           id="flowRoot3715-7-3"
           style="font-style:normal;font-weight:normal;font-size:40px;line-height:1.25;font-family:sans-serif;letter-spacing:0px;word-spacing:0px;fill:#000000;fill-opacity:1;stroke:none"
           transform="matrix(0.32440865,0,0,0.40120315,79.444377,-107.68183)"
           aria-label="Share and transfer  knowledge">
          <path
             id="path123"
             style="font-style:normal;font-variant:normal;font-weight:normal;font-stretch:normal;font-family:Montserrat;-inkscape-font-specification:Montserrat;text-align:center;text-anchor:middle;fill:#000000;fill-opacity:1"
             d="m 260.06418,456.70687 q -3.12,0 -6,-1 -2.84,-1 -4.4,-2.64 l 1.16,-2.28 q 1.52,1.52 4.04,2.48 2.52,0.92 5.2,0.92 3.76,0 5.64,-1.36 1.88,-1.4 1.88,-3.6 0,-1.68 -1.04,-2.68 -1,-1 -2.48,-1.52 -1.48,-0.56 -4.12,-1.2 -3.16,-0.8 -5.04,-1.52 -1.88,-0.76 -3.24,-2.28 -1.32,-1.52 -1.32,-4.12 0,-2.12 1.12,-3.84 1.12,-1.76 3.44,-2.8 2.32,-1.04 5.76,-1.04 2.4,0 4.68,0.68 2.32,0.64 4,1.8 l -1,2.36 q -1.76,-1.16 -3.76,-1.72 -2,-0.6 -3.92,-0.6 -3.68,0 -5.56,1.44 -1.84,1.4 -1.84,3.64 0,1.68 1,2.72 1.04,1 2.56,1.56 1.56,0.52 4.16,1.16 3.08,0.76 4.96,1.52 1.92,0.72 3.24,2.24 1.32,1.48 1.32,4.04 0,2.12 -1.16,3.88 -1.12,1.72 -3.48,2.76 -2.36,1 -5.8,1 z"
             inkscape:connector-curvature="0" />
          <path
             id="path125"
             style="font-style:normal;font-variant:normal;font-weight:normal;font-stretch:normal;font-family:Montserrat;-inkscape-font-specification:Montserrat;text-align:center;text-anchor:middle;fill:#000000;fill-opacity:1"
             d="m 287.07355,435.26687 q 3.96,0 6.28,2.32 2.36,2.28 2.36,6.68 v 12.2 h -2.84 v -11.92 q 0,-3.28 -1.64,-5 -1.64,-1.72 -4.68,-1.72 -3.4,0 -5.4,2.04 -1.96,2 -1.96,5.56 v 11.04 h -2.84 v -29.68 h 2.84 v 12.32 q 1.16,-1.84 3.2,-2.84 2.04,-1 4.68,-1 z"
             inkscape:connector-curvature="0" />
          <path
             id="path127"
             style="font-style:normal;font-variant:normal;font-weight:normal;font-stretch:normal;font-family:Montserrat;-inkscape-font-specification:Montserrat;text-align:center;text-anchor:middle;fill:#000000;fill-opacity:1"
             d="m 310.82293,435.26687 q 4.12,0 6.32,2.08 2.2,2.04 2.2,6.08 v 13.04 h -2.72 v -3.28 q -0.96,1.64 -2.84,2.56 -1.84,0.92 -4.4,0.92 -3.52,0 -5.6,-1.68 -2.08,-1.68 -2.08,-4.44 0,-2.68 1.92,-4.32 1.96,-1.64 6.2,-1.64 h 6.68 v -1.28 q 0,-2.72 -1.52,-4.12 -1.52,-1.44 -4.44,-1.44 -2,0 -3.84,0.68 -1.84,0.64 -3.16,1.8 l -1.28,-2.12 q 1.6,-1.36 3.84,-2.08 2.24,-0.76 4.72,-0.76 z m -1,19.16 q 2.4,0 4.12,-1.08 1.72,-1.12 2.56,-3.2 v -3.44 h -6.6 q -5.4,0 -5.4,3.76 0,1.84 1.4,2.92 1.4,1.04 3.92,1.04 z"
             inkscape:connector-curvature="0" />
          <path
             id="path129"
             style="font-style:normal;font-variant:normal;font-weight:normal;font-stretch:normal;font-family:Montserrat;-inkscape-font-specification:Montserrat;text-align:center;text-anchor:middle;fill:#000000;fill-opacity:1"
             d="m 329.77668,439.54687 q 1,-2.12 2.96,-3.2 2,-1.08 4.92,-1.08 v 2.76 l -0.68,-0.04 q -3.32,0 -5.2,2.04 -1.88,2.04 -1.88,5.72 v 10.72 h -2.84 v -21.04 h 2.72 z"
             inkscape:connector-curvature="0" />
          <path
             id="path131"
             style="font-style:normal;font-variant:normal;font-weight:normal;font-stretch:normal;font-family:Montserrat;-inkscape-font-specification:Montserrat;text-align:center;text-anchor:middle;fill:#000000;fill-opacity:1"
             d="m 360.84543,446.82687 h -17.6 q 0.24,3.28 2.52,5.32 2.28,2 5.76,2 1.96,0 3.6,-0.68 1.64,-0.72 2.84,-2.08 l 1.6,1.84 q -1.4,1.68 -3.52,2.56 -2.08,0.88 -4.6,0.88 -3.24,0 -5.76,-1.36 -2.48,-1.4 -3.88,-3.84 -1.4,-2.44 -1.4,-5.52 0,-3.08 1.32,-5.52 1.36,-2.44 3.68,-3.8 2.36,-1.36 5.28,-1.36 2.92,0 5.24,1.36 2.32,1.36 3.64,3.8 1.32,2.4 1.32,5.52 z m -10.16,-9.12 q -3.04,0 -5.12,1.96 -2.04,1.92 -2.32,5.04 h 14.92 q -0.28,-3.12 -2.36,-5.04 -2.04,-1.96 -5.12,-1.96 z"
             inkscape:connector-curvature="0" />
          <path
             id="path133"
             style="font-style:normal;font-variant:normal;font-weight:normal;font-stretch:normal;font-family:Montserrat;-inkscape-font-specification:Montserrat;text-align:center;text-anchor:middle;fill:#000000;fill-opacity:1"
             d="m 384.4948,435.26687 q 4.12,0 6.32,2.08 2.2,2.04 2.2,6.08 v 13.04 h -2.72 v -3.28 q -0.96,1.64 -2.84,2.56 -1.84,0.92 -4.4,0.92 -3.52,0 -5.6,-1.68 -2.08,-1.68 -2.08,-4.44 0,-2.68 1.92,-4.32 1.96,-1.64 6.2,-1.64 h 6.68 v -1.28 q 0,-2.72 -1.52,-4.12 -1.52,-1.44 -4.44,-1.44 -2,0 -3.84,0.68 -1.84,0.64 -3.16,1.8 l -1.28,-2.12 q 1.6,-1.36 3.84,-2.08 2.24,-0.76 4.72,-0.76 z m -1,19.16 q 2.4,0 4.12,-1.08 1.72,-1.12 2.56,-3.2 v -3.44 h -6.6 q -5.4,0 -5.4,3.76 0,1.84 1.4,2.92 1.4,1.04 3.92,1.04 z"
             inkscape:connector-curvature="0" />
          <path
             id="path135"
             style="font-style:normal;font-variant:normal;font-weight:normal;font-stretch:normal;font-family:Montserrat;-inkscape-font-specification:Montserrat;text-align:center;text-anchor:middle;fill:#000000;fill-opacity:1"
             d="m 411.44855,435.26687 q 3.96,0 6.28,2.32 2.36,2.28 2.36,6.68 v 12.2 h -2.84 v -11.92 q 0,-3.28 -1.64,-5 -1.64,-1.72 -4.68,-1.72 -3.4,0 -5.4,2.04 -1.96,2 -1.96,5.56 v 11.04 h -2.84 v -21.04 h 2.72 v 3.88 q 1.16,-1.92 3.2,-2.96 2.08,-1.08 4.8,-1.08 z"
             inkscape:connector-curvature="0" />
          <path
             id="path137"
             style="font-style:normal;font-variant:normal;font-weight:normal;font-stretch:normal;font-family:Montserrat;-inkscape-font-specification:Montserrat;text-align:center;text-anchor:middle;fill:#000000;fill-opacity:1"
             d="m 447.11605,426.78687 v 29.68 h -2.72 v -4.16 q -1.28,2.12 -3.4,3.24 -2.08,1.12 -4.72,1.12 -2.96,0 -5.36,-1.36 -2.4,-1.36 -3.76,-3.8 -1.36,-2.44 -1.36,-5.56 0,-3.12 1.36,-5.56 1.36,-2.44 3.76,-3.76 2.4,-1.36 5.36,-1.36 2.56,0 4.6,1.08 2.08,1.04 3.4,3.08 v -12.64 z m -10.6,27.36 q 2.2,0 3.96,-1 1.8,-1.04 2.8,-2.92 1.04,-1.88 1.04,-4.28 0,-2.4 -1.04,-4.28 -1,-1.88 -2.8,-2.88 -1.76,-1.04 -3.96,-1.04 -2.24,0 -4.04,1.04 -1.76,1 -2.8,2.88 -1,1.88 -1,4.28 0,2.4 1,4.28 1.04,1.88 2.8,2.92 1.8,1 4.04,1 z"
             inkscape:connector-curvature="0" />
          <path
             id="path139"
             style="font-style:normal;font-variant:normal;font-weight:normal;font-stretch:normal;font-family:Montserrat;-inkscape-font-specification:Montserrat;text-align:center;text-anchor:middle;fill:#000000;fill-opacity:1"
             d="m 476.57418,455.18687 q -0.8,0.72 -2,1.12 -1.16,0.36 -2.44,0.36 -2.96,0 -4.56,-1.6 -1.6,-1.6 -1.6,-4.52 v -12.72 h -3.76 v -2.4 h 3.76 v -4.6 h 2.84 v 4.6 h 6.4 v 2.4 h -6.4 v 12.56 q 0,1.88 0.92,2.88 0.96,0.96 2.72,0.96 0.88,0 1.68,-0.28 0.84,-0.28 1.44,-0.8 z"
             inkscape:connector-curvature="0" />
          <path
             id="path141"
             style="font-style:normal;font-variant:normal;font-weight:normal;font-stretch:normal;font-family:Montserrat;-inkscape-font-specification:Montserrat;text-align:center;text-anchor:middle;fill:#000000;fill-opacity:1"
             d="m 484.46418,439.54687 q 1,-2.12 2.96,-3.2 2,-1.08 4.92,-1.08 v 2.76 l -0.68,-0.04 q -3.32,0 -5.2,2.04 -1.88,2.04 -1.88,5.72 v 10.72 h -2.84 v -21.04 h 2.72 z"
             inkscape:connector-curvature="0" />
          <path
             id="path143"
             style="font-style:normal;font-variant:normal;font-weight:normal;font-stretch:normal;font-family:Montserrat;-inkscape-font-specification:Montserrat;text-align:center;text-anchor:middle;fill:#000000;fill-opacity:1"
             d="m 504.72918,435.26687 q 4.12,0 6.32,2.08 2.2,2.04 2.2,6.08 v 13.04 h -2.72 v -3.28 q -0.96,1.64 -2.84,2.56 -1.84,0.92 -4.4,0.92 -3.52,0 -5.6,-1.68 -2.08,-1.68 -2.08,-4.44 0,-2.68 1.92,-4.32 1.96,-1.64 6.2,-1.64 h 6.68 v -1.28 q 0,-2.72 -1.52,-4.12 -1.52,-1.44 -4.44,-1.44 -2,0 -3.84,0.68 -1.84,0.64 -3.16,1.8 l -1.28,-2.12 q 1.6,-1.36 3.84,-2.08 2.24,-0.76 4.72,-0.76 z m -1,19.16 q 2.4,0 4.12,-1.08 1.72,-1.12 2.56,-3.2 v -3.44 h -6.6 q -5.4,0 -5.4,3.76 0,1.84 1.4,2.92 1.4,1.04 3.92,1.04 z"
             inkscape:connector-curvature="0" />
          <path
             id="path145"
             style="font-style:normal;font-variant:normal;font-weight:normal;font-stretch:normal;font-family:Montserrat;-inkscape-font-specification:Montserrat;text-align:center;text-anchor:middle;fill:#000000;fill-opacity:1"
             d="m 531.68293,435.26687 q 3.96,0 6.28,2.32 2.36,2.28 2.36,6.68 v 12.2 h -2.84 v -11.92 q 0,-3.28 -1.64,-5 -1.64,-1.72 -4.68,-1.72 -3.4,0 -5.4,2.04 -1.96,2 -1.96,5.56 v 11.04 h -2.84 v -21.04 h 2.72 v 3.88 q 1.16,-1.92 3.2,-2.96 2.08,-1.08 4.8,-1.08 z"
             inkscape:connector-curvature="0" />
          <path
             id="path147"
             style="font-style:normal;font-variant:normal;font-weight:normal;font-stretch:normal;font-family:Montserrat;-inkscape-font-specification:Montserrat;text-align:center;text-anchor:middle;fill:#000000;fill-opacity:1"
             d="m 553.7123,456.66687 q -2.56,0 -4.92,-0.72 -2.32,-0.76 -3.64,-1.88 l 1.28,-2.24 q 1.32,1.04 3.32,1.72 2,0.64 4.16,0.64 2.88,0 4.24,-0.88 1.4,-0.92 1.4,-2.56 0,-1.16 -0.76,-1.8 -0.76,-0.68 -1.92,-1 -1.16,-0.36 -3.08,-0.68 -2.56,-0.48 -4.12,-0.96 -1.56,-0.52 -2.68,-1.72 -1.08,-1.2 -1.08,-3.32 0,-2.64 2.2,-4.32 2.2,-1.68 6.12,-1.68 2.04,0 4.08,0.56 2.04,0.52 3.36,1.4 l -1.24,2.28 q -2.6,-1.8 -6.2,-1.8 -2.72,0 -4.12,0.96 -1.36,0.96 -1.36,2.52 0,1.2 0.76,1.92 0.8,0.72 1.96,1.08 1.16,0.32 3.2,0.68 2.52,0.48 4.04,0.96 1.52,0.48 2.6,1.64 1.08,1.16 1.08,3.2 0,2.76 -2.32,4.4 -2.28,1.6 -6.36,1.6 z"
             inkscape:connector-curvature="0" />
          <path
             id="path149"
             style="font-style:normal;font-variant:normal;font-weight:normal;font-stretch:normal;font-family:Montserrat;-inkscape-font-specification:Montserrat;text-align:center;text-anchor:middle;fill:#000000;fill-opacity:1"
             d="m 574.56355,428.98687 q -1.84,0 -2.8,1 -0.92,1 -0.92,2.96 v 2.48 h 6.48 v 2.4 h -6.4 v 18.64 h -2.84 v -18.64 h -3.76 v -2.4 h 3.76 v -2.6 q 0,-2.88 1.64,-4.56 1.68,-1.68 4.72,-1.68 1.2,0 2.32,0.36 1.12,0.32 1.88,0.96 l -0.96,2.12 q -1.24,-1.04 -3.12,-1.04 z"
             inkscape:connector-curvature="0" />
          <path
             id="path151"
             style="font-style:normal;font-variant:normal;font-weight:normal;font-stretch:normal;font-family:Montserrat;-inkscape-font-specification:Montserrat;text-align:center;text-anchor:middle;fill:#000000;fill-opacity:1"
             d="m 599.12668,446.82687 h -17.6 q 0.24,3.28 2.52,5.32 2.28,2 5.76,2 1.96,0 3.6,-0.68 1.64,-0.72 2.84,-2.08 l 1.6,1.84 q -1.4,1.68 -3.52,2.56 -2.08,0.88 -4.6,0.88 -3.24,0 -5.76,-1.36 -2.48,-1.4 -3.88,-3.84 -1.4,-2.44 -1.4,-5.52 0,-3.08 1.32,-5.52 1.36,-2.44 3.68,-3.8 2.36,-1.36 5.28,-1.36 2.92,0 5.24,1.36 2.32,1.36 3.64,3.8 1.32,2.4 1.32,5.52 z m -10.16,-9.12 q -3.04,0 -5.12,1.96 -2.04,1.92 -2.32,5.04 h 14.92 q -0.28,-3.12 -2.36,-5.04 -2.04,-1.96 -5.12,-1.96 z"
             inkscape:connector-curvature="0" />
          <path
             id="path153"
             style="font-style:normal;font-variant:normal;font-weight:normal;font-stretch:normal;font-family:Montserrat;-inkscape-font-specification:Montserrat;text-align:center;text-anchor:middle;fill:#000000;fill-opacity:1"
             d="m 607.6673,439.54687 q 1,-2.12 2.96,-3.2 2,-1.08 4.92,-1.08 v 2.76 l -0.68,-0.04 q -3.32,0 -5.2,2.04 -1.88,2.04 -1.88,5.72 v 10.72 h -2.84 v -21.04 h 2.72 z"
             inkscape:connector-curvature="0" />
          <path
             id="path155"
             style="font-style:normal;font-variant:normal;font-weight:normal;font-stretch:normal;font-family:Montserrat;-inkscape-font-specification:Montserrat;text-align:center;text-anchor:middle;fill:#000000;fill-opacity:1"
             d="m 332.08324,496.64042 -4.96,4.56 v 6 h -2.84 v -29.68 h 2.84 v 20.12 l 12.56,-11.48 h 3.52 l -9,8.6 9.84,12.44 h -3.48 z"
             inkscape:connector-curvature="0" />
          <path
             id="path157"
             style="font-style:normal;font-variant:normal;font-weight:normal;font-stretch:normal;font-family:Montserrat;-inkscape-font-specification:Montserrat;text-align:center;text-anchor:middle;fill:#000000;fill-opacity:1"
             d="m 358.75324,486.00042 q 3.96,0 6.28,2.32 2.36,2.28 2.36,6.68 v 12.2 h -2.84 v -11.92 q 0,-3.28 -1.64,-5 -1.64,-1.72 -4.68,-1.72 -3.4,0 -5.4,2.04 -1.96,2 -1.96,5.56 v 11.04 h -2.84 v -21.04 h 2.72 v 3.88 q 1.16,-1.92 3.2,-2.96 2.08,-1.08 4.8,-1.08 z"
             inkscape:connector-curvature="0" />
          <path
             id="path159"
             style="font-style:normal;font-variant:normal;font-weight:normal;font-stretch:normal;font-family:Montserrat;-inkscape-font-specification:Montserrat;text-align:center;text-anchor:middle;fill:#000000;fill-opacity:1"
             d="m 383.82074,507.40042 q -3.04,0 -5.48,-1.36 -2.44,-1.4 -3.84,-3.84 -1.4,-2.44 -1.4,-5.52 0,-3.08 1.4,-5.52 1.4,-2.44 3.84,-3.8 2.44,-1.36 5.48,-1.36 3.04,0 5.48,1.36 2.44,1.36 3.8,3.8 1.4,2.44 1.4,5.52 0,3.08 -1.4,5.52 -1.36,2.44 -3.8,3.84 -2.44,1.36 -5.48,1.36 z m 0,-2.52 q 2.24,0 4,-1 1.8,-1.04 2.8,-2.92 1,-1.88 1,-4.28 0,-2.4 -1,-4.28 -1,-1.88 -2.8,-2.88 -1.76,-1.04 -4,-1.04 -2.24,0 -4.04,1.04 -1.76,1 -2.8,2.88 -1,1.88 -1,4.28 0,2.4 1,4.28 1.04,1.88 2.8,2.92 1.8,1 4.04,1 z"
             inkscape:connector-curvature="0" />
          <path
             id="path161"
             style="font-style:normal;font-variant:normal;font-weight:normal;font-stretch:normal;font-family:Montserrat;-inkscape-font-specification:Montserrat;text-align:center;text-anchor:middle;fill:#000000;fill-opacity:1"
             d="m 430.55387,486.16042 -7.96,21.04 h -2.68 l -6.64,-17.24 -6.64,17.24 h -2.68 l -7.92,-21.04 h 2.72 l 6.6,17.88 6.76,-17.88 h 2.44 l 6.72,17.88 6.68,-17.88 z"
             inkscape:connector-curvature="0" />
          <path
             id="path163"
             style="font-style:normal;font-variant:normal;font-weight:normal;font-stretch:normal;font-family:Montserrat;-inkscape-font-specification:Montserrat;text-align:center;text-anchor:middle;fill:#000000;fill-opacity:1"
             d="m 434.83012,477.52042 h 2.84 v 29.68 h -2.84 z"
             inkscape:connector-curvature="0" />
          <path
             id="path165"
             style="font-style:normal;font-variant:normal;font-weight:normal;font-stretch:normal;font-family:Montserrat;-inkscape-font-specification:Montserrat;text-align:center;text-anchor:middle;fill:#000000;fill-opacity:1"
             d="m 463.93137,497.56042 h -17.6 q 0.24,3.28 2.52,5.32 2.28,2 5.76,2 1.96,0 3.6,-0.68 1.64,-0.72 2.84,-2.08 l 1.6,1.84 q -1.4,1.68 -3.52,2.56 -2.08,0.88 -4.6,0.88 -3.24,0 -5.76,-1.36 -2.48,-1.4 -3.88,-3.84 -1.4,-2.44 -1.4,-5.52 0,-3.08 1.32,-5.52 1.36,-2.44 3.68,-3.8 2.36,-1.36 5.28,-1.36 2.92,0 5.24,1.36 2.32,1.36 3.64,3.8 1.32,2.4 1.32,5.52 z m -10.16,-9.12 q -3.04,0 -5.12,1.96 -2.04,1.92 -2.32,5.04 h 14.92 q -0.28,-3.12 -2.36,-5.04 -2.04,-1.96 -5.12,-1.96 z"
             inkscape:connector-curvature="0" />
          <path
             id="path167"
             style="font-style:normal;font-variant:normal;font-weight:normal;font-stretch:normal;font-family:Montserrat;-inkscape-font-specification:Montserrat;text-align:center;text-anchor:middle;fill:#000000;fill-opacity:1"
             d="m 488.95199,477.52042 v 29.68 h -2.72 v -4.16 q -1.28,2.12 -3.4,3.24 -2.08,1.12 -4.72,1.12 -2.96,0 -5.36,-1.36 -2.4,-1.36 -3.76,-3.8 -1.36,-2.44 -1.36,-5.56 0,-3.12 1.36,-5.56 1.36,-2.44 3.76,-3.76 2.4,-1.36 5.36,-1.36 2.56,0 4.6,1.08 2.08,1.04 3.4,3.08 v -12.64 z m -10.6,27.36 q 2.2,0 3.96,-1 1.8,-1.04 2.8,-2.92 1.04,-1.88 1.04,-4.28 0,-2.4 -1.04,-4.28 -1,-1.88 -2.8,-2.88 -1.76,-1.04 -3.96,-1.04 -2.24,0 -4.04,1.04 -1.76,1 -2.8,2.88 -1,1.88 -1,4.28 0,2.4 1,4.28 1.04,1.88 2.8,2.92 1.8,1 4.04,1 z"
             inkscape:connector-curvature="0" />
          <path
             id="path169"
             style="font-style:normal;font-variant:normal;font-weight:normal;font-stretch:normal;font-family:Montserrat;-inkscape-font-specification:Montserrat;text-align:center;text-anchor:middle;fill:#000000;fill-opacity:1"
             d="m 516.34137,486.16042 v 18.48 q 0,5.36 -2.64,7.92 -2.6,2.6 -7.88,2.6 -2.92,0 -5.56,-0.88 -2.6,-0.84 -4.24,-2.36 l 1.44,-2.16 q 1.52,1.36 3.68,2.12 2.2,0.76 4.6,0.76 4,0 5.88,-1.88 1.88,-1.84 1.88,-5.76 v -2.68 q -1.32,2 -3.48,3.04 -2.12,1.04 -4.72,1.04 -2.96,0 -5.4,-1.28 -2.4,-1.32 -3.8,-3.64 -1.36,-2.36 -1.36,-5.32 0,-2.96 1.36,-5.28 1.4,-2.32 3.8,-3.6 2.4,-1.28 5.4,-1.28 2.68,0 4.84,1.08 2.16,1.08 3.48,3.12 v -4.04 z m -10.76,17.72 q 2.28,0 4.12,-0.96 1.84,-1 2.84,-2.76 1.04,-1.76 1.04,-4 0,-2.24 -1.04,-3.96 -1,-1.76 -2.84,-2.72 -1.8,-1 -4.12,-1 -2.28,0 -4.12,0.96 -1.8,0.96 -2.84,2.72 -1,1.76 -1,4 0,2.24 1,4 1.04,1.76 2.84,2.76 1.84,0.96 4.12,0.96 z"
             inkscape:connector-curvature="0" />
          <path
             id="path171"
             style="font-style:normal;font-variant:normal;font-weight:normal;font-stretch:normal;font-family:Montserrat;-inkscape-font-specification:Montserrat;text-align:center;text-anchor:middle;fill:#000000;fill-opacity:1"
             d="m 542.60324,497.56042 h -17.6 q 0.24,3.28 2.52,5.32 2.28,2 5.76,2 1.96,0 3.6,-0.68 1.64,-0.72 2.84,-2.08 l 1.6,1.84 q -1.4,1.68 -3.52,2.56 -2.08,0.88 -4.6,0.88 -3.24,0 -5.76,-1.36 -2.48,-1.4 -3.88,-3.84 -1.4,-2.44 -1.4,-5.52 0,-3.08 1.32,-5.52 1.36,-2.44 3.68,-3.8 2.36,-1.36 5.28,-1.36 2.92,0 5.24,1.36 2.32,1.36 3.64,3.8 1.32,2.4 1.32,5.52 z m -10.16,-9.12 q -3.04,0 -5.12,1.96 -2.04,1.92 -2.32,5.04 h 14.92 q -0.28,-3.12 -2.36,-5.04 -2.04,-1.96 -5.12,-1.96 z"
             inkscape:connector-curvature="0" />
        </g>
      </g>
    </g>
  </g>
</svg>
